<?xml version="1.0" encoding="utf-8"?>
<COLLADA xmlns="http://www.collada.org/2005/11/COLLADASchema" version="1.4.1" xmlns:xsi="http://www.w3.org/2001/XMLSchema-instance">
  <asset>
    <contributor>
      <author>Blender User</author>
      <authoring_tool>Blender 4.4.1 commit date:2025-04-14, commit time:14:20, hash:d8845b3bb572</authoring_tool>
    </contributor>
    <created>2025-07-09T00:10:06</created>
    <modified>2025-07-09T00:10:06</modified>
    <unit name="meter" meter="1"/>
    <up_axis>Z_UP</up_axis>
  </asset>
  <library_effects>
    <effect id="Yellow-effect">
      <profile_COMMON>
        <technique sid="common">
          <lambert>
            <emission>
              <color sid="emission">0 0 0 1</color>
            </emission>
            <diffuse>
              <color sid="diffuse">0.5127721 0.4749476 0.009060239 1</color>
            </diffuse>
            <index_of_refraction>
              <float sid="ior">1.5</float>
            </index_of_refraction>
          </lambert>
        </technique>
      </profile_COMMON>
    </effect>
    <effect id="Pink-effect">
      <profile_COMMON>
        <technique sid="common">
          <lambert>
            <emission>
              <color sid="emission">0 0 0 1</color>
            </emission>
            <diffuse>
              <color sid="diffuse">0.8013581 0.005261878 0.2739176 1</color>
            </diffuse>
            <index_of_refraction>
              <float sid="ior">1.5</float>
            </index_of_refraction>
          </lambert>
        </technique>
      </profile_COMMON>
    </effect>
  </library_effects>
  <library_images/>
  <library_materials>
    <material id="Yellow-material" name="Yellow">
      <instance_effect url="#Yellow-effect"/>
    </material>
    <material id="Pink-material" name="Pink">
      <instance_effect url="#Pink-effect"/>
    </material>
  </library_materials>
  <library_geometries>
    <geometry id="Cube_004-mesh" name="Cube.004">
      <mesh>
        <source id="Cube_004-mesh-positions">
          <float_array id="Cube_004-mesh-positions-array" count="228">-1 -1 -1 -1 1 -1 1 -1 -1 1 1 -1 -0.7197355 -0.7197355 1 -1 -1 0.7563756 -0.7197355 0.7197355 1 -1 1 0.7563756 0.7197355 -0.7197355 1 1 -1 0.7563756 0.7197355 0.7197355 1 1 1 0.7563756 0 0.6666666 0.995185 0 0.6666666 1.186584 0.1300602 0.6538568 0.995185 0.1300602 0.6538568 1.186584 0.2551223 0.6159197 0.995185 0.2551223 0.6159197 1.186584 0.3703801 0.554313 0.995185 0.3703801 0.554313 1.186584 0.4714045 0.4714045 0.995185 0.4714045 0.4714045 1.186584 0.554313 0.3703801 0.995185 0.554313 0.3703801 1.186584 0.6159197 0.2551223 0.995185 0.6159197 0.2551223 1.186584 0.6538568 0.1300602 0.995185 0.6538568 0.1300602 1.186584 0.6666666 0 0.995185 0.6666666 0 1.186584 0.6538568 -0.1300602 0.995185 0.6538568 -0.1300602 1.186584 0.6159197 -0.2551223 0.995185 0.6159197 -0.2551223 1.186584 0.554313 -0.3703801 0.995185 0.554313 -0.3703801 1.186584 0.4714045 -0.4714045 0.995185 0.4714045 -0.4714045 1.186584 0.3703801 -0.554313 0.995185 0.3703801 -0.554313 1.186584 0.2551223 -0.6159197 0.995185 0.2551223 -0.6159197 1.186584 0.1300602 -0.6538568 0.995185 0.1300602 -0.6538568 1.186584 0 -0.6666666 0.995185 0 -0.6666666 1.186584 -0.1300602 -0.6538568 0.995185 -0.1300602 -0.6538568 1.186584 -0.2551223 -0.6159197 0.995185 -0.2551223 -0.6159197 1.186584 -0.3703801 -0.554313 0.995185 -0.3703801 -0.554313 1.186584 -0.4714045 -0.4714045 0.995185 -0.4714045 -0.4714045 1.186584 -0.554313 -0.3703801 0.995185 -0.554313 -0.3703801 1.186584 -0.6159197 -0.2551223 0.995185 -0.6159197 -0.2551223 1.186584 -0.6538568 -0.1300602 0.995185 -0.6538568 -0.1300602 1.186584 -0.6666666 0 0.995185 -0.6666666 0 1.186584 -0.6538568 0.1300602 0.995185 -0.6538568 0.1300602 1.186584 -0.6159197 0.2551223 0.995185 -0.6159197 0.2551223 1.186584 -0.554313 0.3703801 0.995185 -0.554313 0.3703801 1.186584 -0.4714045 0.4714045 0.995185 -0.4714045 0.4714045 1.186584 -0.3703801 0.554313 0.995185 -0.3703801 0.554313 1.186584 -0.2551223 0.6159197 0.995185 -0.2551223 0.6159197 1.186584 -0.1300602 0.6538568 0.995185 -0.1300602 0.6538568 1.186584</float_array>
          <technique_common>
            <accessor source="#Cube_004-mesh-positions-array" count="76" stride="3">
              <param name="X" type="float"/>
              <param name="Y" type="float"/>
              <param name="Z" type="float"/>
            </accessor>
          </technique_common>
        </source>
        <source id="Cube_004-mesh-normals">
          <float_array id="Cube_004-mesh-normals-array" count="432">0 0 1 1 0 0 -1 0 0 0 0 -1 0 1 0 -0.6560502 0 0.7547174 0 0.6560502 0.7547174 0.6560502 0 0.7547174 0 -0.6560502 0.7547174 0 -1 0 0.09801709 0.9951847 0 0.2902847 0.9569403 0 0.4713969 0.8819212 0 0.634393 0.7730106 0 0.7730106 0.634393 0 0.8819212 0.4713969 0 0.9569403 0.2902847 0 0.9951847 0.09801709 0 0.9951847 -0.09801709 0 0.9569403 -0.2902847 0 0.8819212 -0.4713969 0 0.7730106 -0.634393 0 0.634393 -0.7730106 0 0.4713969 -0.8819212 0 0.2902847 -0.9569403 0 0.09801709 -0.9951847 0 -0.09801709 -0.9951847 0 -0.2902847 -0.9569403 0 -0.4713969 -0.8819212 0 -0.634393 -0.7730106 0 -0.7730106 -0.634393 0 -0.8819212 -0.4713969 0 -0.9569403 -0.2902847 0 -0.9951847 -0.09801709 0 -0.9951847 0.09801709 0 -0.9569403 0.2902847 0 -0.8819212 0.4713969 0 -0.7730106 0.634393 0 -0.634393 0.7730106 0 -0.4713969 0.8819212 0 0 0 1 -0.2902847 0.9569403 0 -0.09801709 0.9951847 0 0 0 -1 0 0 1 1 0 0 -1 0 0 0 0 -1 0 1 0 -0.6560502 0 0.7547174 0 0.6560502 0.7547174 0.6560502 0 0.7547174 0 -0.6560502 0.7547174 0 -1 0 0.09801709 0.9951847 0 0.2902847 0.9569403 0 0.4713969 0.8819212 0 0.634393 0.7730106 0 0.7730106 0.634393 0 0.8819212 0.4713969 0 0.9569403 0.2902847 0 0.9951847 0.09801709 0 0.9951847 -0.09801709 0 0.9569403 -0.2902847 0 0.8819212 -0.4713969 0 0.7730106 -0.634393 0 0.634393 -0.7730106 0 0.4713969 -0.8819212 0 0.2902847 -0.9569403 0 0.09801709 -0.9951847 0 -0.09801709 -0.9951847 0 -0.2902847 -0.9569403 0 -0.4713969 -0.8819212 0 -0.634393 -0.7730106 0 -0.7730106 -0.634393 0 -0.8819212 -0.4713969 0 -0.9569403 -0.2902847 0 -0.9951847 -0.09801709 0 -0.9951847 0.09801709 0 -0.9569403 0.2902847 0 -0.8819212 0.4713969 0 -0.7730106 0.634393 0 -0.634393 0.7730106 0 -0.4713969 0.8819212 0 0 0 1 0 0 1 0 0 1 0 0 1 0 0 1 0 0 1 0 0 1 0 0 1 0 0 1 0 0 1 0 0 1 0 0 1 0 0 1 0 0 1 0 0 1 0 0 1 0 0 1 0 0 1 0 0 1 0 0 1 0 0 1 0 0 1 0 0 1 0 0 1 0 0 1 0 0 1 0 0 1 0 0 1 0 0 1 -0.2902847 0.9569403 0 -0.09801709 0.9951847 0 0 0 -1 0 0 -1 0 0 -1 0 0 -1 0 0 -1 0 0 -1 0 0 -1 0 0 -1 0 0 -1 0 0 -1 0 0 -1 0 0 -1 0 0 -1 0 0 -1 0 0 -1 0 0 -1 0 0 -1 0 0 -1 0 0 -1 0 0 -1 0 0 -1 0 0 -1 0 0 -1 0 0 -1 0 0 -1 0 0 -1 0 0 -1 0 0 -1 0 0 -1</float_array>
          <technique_common>
            <accessor source="#Cube_004-mesh-normals-array" count="144" stride="3">
              <param name="X" type="float"/>
              <param name="Y" type="float"/>
              <param name="Z" type="float"/>
            </accessor>
          </technique_common>
        </source>
        <source id="Cube_004-mesh-map-0">
          <float_array id="Cube_004-mesh-map-0-array" count="864">0.8399669 0.5350331 0.6600331 0.714967 0.6600331 0.5350331 0.589967 0.5 0.375 0.75 0.375 0.5 0.589967 0 0.375 0.25 0.375 0 0.375 0.5 0.125 0.75 0.125 0.5 0.589967 0.25 0.375 0.5 0.375 0.25 0.8399669 0.5350331 0.875 0.75 0.839967 0.7149669 0.6600331 0.5350331 0.875 0.5 0.8399669 0.5350331 0.6600331 0.714967 0.589967 0.5 0.6600331 0.5350331 0.839967 0.7149669 0.625 0.75 0.6600331 0.714967 0.589967 0.75 0.375 1 0.375 0.75 1 1 0.96875 0.5 1 0.5 0.96875 1 0.9375 0.5 0.96875 0.5 0.9375 1 0.90625 0.5 0.9375 0.5 0.90625 1 0.875 0.5 0.90625 0.5 0.875 1 0.84375 0.5 0.875 0.5 0.84375 1 0.8125 0.5 0.84375 0.5 0.8125 1 0.78125 0.5 0.8125 0.5 0.78125 1 0.75 0.5 0.78125 0.5 0.75 1 0.71875 0.5 0.75 0.5 0.71875 1 0.6875 0.5 0.71875 0.5 0.6875 1 0.65625 0.5 0.6875 0.5 0.65625 1 0.625 0.5 0.65625 0.5 0.625 1 0.59375 0.5 0.625 0.5 0.59375 1 0.5625 0.5 0.59375 0.5 0.5625 1 0.53125 0.5 0.5625 0.5 0.53125 1 0.5 0.5 0.53125 0.5 0.5 1 0.46875 0.5 0.5 0.5 0.46875 1 0.4375 0.5 0.46875 0.5 0.4375 1 0.40625 0.5 0.4375 0.5 0.40625 1 0.375 0.5 0.40625 0.5 0.375 1 0.34375 0.5 0.375 0.5 0.34375 1 0.3125 0.5 0.34375 0.5 0.3125 1 0.28125 0.5 0.3125 0.5 0.28125 1 0.25 0.5 0.28125 0.5 0.25 1 0.21875 0.5 0.25 0.5 0.21875 1 0.1875 0.5 0.21875 0.5 0.1875 1 0.15625 0.5 0.1875 0.5 0.15625 1 0.125 0.5 0.15625 0.5 0.125 1 0.09375 0.5 0.125 0.5 0.09375 1 0.0625 0.5 0.09375 0.5 0.1581559 0.02826887 0.4717311 0.1581559 0.341844 0.4717311 0.0625 1 0.03125 0.5 0.0625 0.5 0.03125 1 0 0.5 0.03125 0.5 0.7968217 0.01461154 0.5146116 0.2031783 0.7031784 0.4853885 0.8399669 0.5350331 0.839967 0.7149669 0.6600331 0.714967 0.589967 0.5 0.589967 0.75 0.375 0.75 0.589967 0 0.589967 0.25 0.375 0.25 0.375 0.5 0.375 0.75 0.125 0.75 0.589967 0.25 0.589967 0.5 0.375 0.5 0.8399669 0.5350331 0.875 0.5 0.875 0.75 0.6600331 0.5350331 0.625 0.5 0.875 0.5 0.6600331 0.714967 0.589967 0.75 0.589967 0.5 0.839967 0.7149669 0.875 0.75 0.625 0.75 0.589967 0.75 0.589967 1 0.375 1 1 1 0.96875 1 0.96875 0.5 0.96875 1 0.9375 1 0.9375 0.5 0.9375 1 0.90625 1 0.90625 0.5 0.90625 1 0.875 1 0.875 0.5 0.875 1 0.84375 1 0.84375 0.5 0.84375 1 0.8125 1 0.8125 0.5 0.8125 1 0.78125 1 0.78125 0.5 0.78125 1 0.75 1 0.75 0.5 0.75 1 0.71875 1 0.71875 0.5 0.71875 1 0.6875 1 0.6875 0.5 0.6875 1 0.65625 1 0.65625 0.5 0.65625 1 0.625 1 0.625 0.5 0.625 1 0.59375 1 0.59375 0.5 0.59375 1 0.5625 1 0.5625 0.5 0.5625 1 0.53125 1 0.53125 0.5 0.53125 1 0.5 1 0.5 0.5 0.5 1 0.46875 1 0.46875 0.5 0.46875 1 0.4375 1 0.4375 0.5 0.4375 1 0.40625 1 0.40625 0.5 0.40625 1 0.375 1 0.375 0.5 0.375 1 0.34375 1 0.34375 0.5 0.34375 1 0.3125 1 0.3125 0.5 0.3125 1 0.28125 1 0.28125 0.5 0.28125 1 0.25 1 0.25 0.5 0.25 1 0.21875 1 0.21875 0.5 0.21875 1 0.1875 1 0.1875 0.5 0.1875 1 0.15625 1 0.15625 0.5 0.15625 1 0.125 1 0.125 0.5 0.125 1 0.09375 1 0.09375 0.5 0.09375 1 0.0625 1 0.0625 0.5 0.341844 0.4717311 0.2968217 0.4853885 0.25 0.49 0.25 0.49 0.2031783 0.4853885 0.1581559 0.4717311 0.1581559 0.4717311 0.1166631 0.4495527 0.02826887 0.341844 0.1166631 0.4495527 0.08029437 0.4197056 0.02826887 0.341844 0.08029437 0.4197056 0.05044728 0.3833369 0.02826887 0.341844 0.02826887 0.341844 0.01461154 0.2968217 0.00999999 0.25 0.00999999 0.25 0.01461154 0.2031783 0.02826887 0.1581559 0.02826887 0.1581559 0.05044728 0.1166631 0.1581559 0.02826887 0.05044728 0.1166631 0.08029437 0.08029437 0.1581559 0.02826887 0.08029437 0.08029437 0.1166631 0.05044728 0.1581559 0.02826887 0.1581559 0.02826887 0.2031783 0.01461154 0.25 0.00999999 0.25 0.00999999 0.2968217 0.01461154 0.341844 0.02826887 0.341844 0.02826887 0.3833369 0.05044728 0.4717311 0.1581559 0.3833369 0.05044728 0.4197056 0.08029437 0.4717311 0.1581559 0.4197056 0.08029437 0.4495527 0.1166631 0.4717311 0.1581559 0.4717311 0.1581559 0.4853885 0.2031783 0.49 0.25 0.49 0.25 0.4853885 0.2968217 0.4717311 0.341844 0.4717311 0.341844 0.4495527 0.3833369 0.341844 0.4717311 0.4495527 0.3833369 0.4197056 0.4197056 0.341844 0.4717311 0.4197056 0.4197056 0.3833369 0.4495527 0.341844 0.4717311 0.341844 0.4717311 0.25 0.49 0.1581559 0.4717311 0.02826887 0.341844 0.00999999 0.25 0.02826887 0.1581559 0.1581559 0.02826887 0.25 0.00999999 0.341844 0.02826887 0.4717311 0.1581559 0.49 0.25 0.4717311 0.341844 0.341844 0.4717311 0.1581559 0.4717311 0.02826887 0.341844 0.02826887 0.341844 0.02826887 0.1581559 0.1581559 0.02826887 0.1581559 0.02826887 0.341844 0.02826887 0.4717311 0.1581559 0.4717311 0.1581559 0.4717311 0.341844 0.341844 0.4717311 0.341844 0.4717311 0.02826887 0.341844 0.1581559 0.02826887 0.0625 1 0.03125 1 0.03125 0.5 0.03125 1 0 1 0 0.5 0.7031784 0.4853885 0.75 0.49 0.8833369 0.4495527 0.75 0.49 0.7968217 0.4853885 0.8833369 0.4495527 0.7968217 0.4853885 0.841844 0.4717311 0.8833369 0.4495527 0.8833369 0.4495527 0.9197056 0.4197056 0.9495527 0.3833369 0.9495527 0.3833369 0.9717311 0.341844 0.9853885 0.2968217 0.9853885 0.2968217 0.99 0.25 0.9495527 0.1166631 0.99 0.25 0.9853885 0.2031783 0.9495527 0.1166631 0.9853885 0.2031783 0.9717311 0.1581559 0.9495527 0.1166631 0.9495527 0.1166631 0.9197056 0.08029437 0.8833369 0.05044728 0.8833369 0.05044728 0.841844 0.02826887 0.7968217 0.01461154 0.7968217 0.01461154 0.75 0.00999999 0.6166632 0.05044728 0.75 0.00999999 0.7031784 0.01461154 0.6166632 0.05044728 0.7031784 0.01461154 0.658156 0.02826887 0.6166632 0.05044728 0.6166632 0.05044728 0.5802944 0.08029437 0.5504473 0.1166631 0.5504473 0.1166631 0.5282689 0.1581559 0.5146116 0.2031783 0.5146116 0.2031783 0.51 0.25 0.5504473 0.3833369 0.51 0.25 0.5146116 0.2968217 0.5504473 0.3833369 0.5146116 0.2968217 0.5282689 0.341844 0.5504473 0.3833369 0.5504473 0.3833369 0.5802944 0.4197056 0.6166632 0.4495527 0.6166632 0.4495527 0.658156 0.4717311 0.7031784 0.4853885 0.8833369 0.4495527 0.9495527 0.3833369 0.9853885 0.2968217 0.9495527 0.1166631 0.8833369 0.05044728 0.7968217 0.01461154 0.6166632 0.05044728 0.5504473 0.1166631 0.5146116 0.2031783 0.5504473 0.3833369 0.6166632 0.4495527 0.7031784 0.4853885 0.7031784 0.4853885 0.8833369 0.4495527 0.9853885 0.2968217 0.9853885 0.2968217 0.9495527 0.1166631 0.7968217 0.01461154 0.7968217 0.01461154 0.6166632 0.05044728 0.5146116 0.2031783 0.5146116 0.2031783 0.5504473 0.3833369 0.7031784 0.4853885 0.7031784 0.4853885 0.9853885 0.2968217 0.7968217 0.01461154</float_array>
          <technique_common>
            <accessor source="#Cube_004-mesh-map-0-array" count="432" stride="2">
              <param name="S" type="float"/>
              <param name="T" type="float"/>
            </accessor>
          </technique_common>
        </source>
        <vertices id="Cube_004-mesh-vertices">
          <input semantic="POSITION" source="#Cube_004-mesh-positions"/>
        </vertices>
        <triangles material="Yellow-material" count="144">
          <input semantic="VERTEX" source="#Cube_004-mesh-vertices" offset="0"/>
          <input semantic="NORMAL" source="#Cube_004-mesh-normals" offset="1"/>
          <input semantic="TEXCOORD" source="#Cube_004-mesh-map-0" offset="2" set="0"/>
          <p>6 0 0 8 0 1 10 0 2 11 1 3 2 1 4 3 1 5 5 2 6 1 2 7 0 2 8 3 3 9 0 3 10 1 3 11 7 4 12 3 4 13 1 4 14 6 5 15 5 5 16 4 5 17 10 6 18 7 6 19 6 6 20 8 7 21 11 7 22 10 7 23 4 8 24 9 8 25 8 8 26 9 9 27 0 9 28 2 9 29 13 10 30 14 10 31 12 10 32 15 11 33 16 11 34 14 11 35 17 12 36 18 12 37 16 12 38 19 13 39 20 13 40 18 13 41 21 14 42 22 14 43 20 14 44 23 15 45 24 15 46 22 15 47 25 16 48 26 16 49 24 16 50 27 17 51 28 17 52 26 17 53 29 18 54 30 18 55 28 18 56 31 19 57 32 19 58 30 19 59 33 20 60 34 20 61 32 20 62 35 21 63 36 21 64 34 21 65 37 22 66 38 22 67 36 22 68 39 23 69 40 23 70 38 23 71 41 24 72 42 24 73 40 24 74 43 25 75 44 25 76 42 25 77 45 26 78 46 26 79 44 26 80 47 27 81 48 27 82 46 27 83 49 28 84 50 28 85 48 28 86 51 29 87 52 29 88 50 29 89 53 30 90 54 30 91 52 30 92 55 31 93 56 31 94 54 31 95 57 32 96 58 32 97 56 32 98 59 33 99 60 33 100 58 33 101 61 34 102 62 34 103 60 34 104 63 35 105 64 35 106 62 35 107 65 36 108 66 36 109 64 36 110 67 37 111 68 37 112 66 37 113 69 38 114 70 38 115 68 38 116 71 39 117 72 39 118 70 39 119 49 40 120 33 40 121 17 40 122 73 41 123 74 41 124 72 41 125 75 42 126 12 42 127 74 42 128 42 43 129 58 43 130 74 43 131 6 44 132 4 44 133 8 44 134 11 45 135 9 45 136 2 45 137 5 46 138 7 46 139 1 46 140 3 47 141 2 47 142 0 47 143 7 48 144 11 48 145 3 48 146 6 49 147 7 49 148 5 49 149 10 50 150 11 50 151 7 50 152 8 51 153 9 51 154 11 51 155 4 52 156 5 52 157 9 52 158 9 53 159 5 53 160 0 53 161 13 54 162 15 54 163 14 54 164 15 55 165 17 55 166 16 55 167 17 56 168 19 56 169 18 56 170 19 57 171 21 57 172 20 57 173 21 58 174 23 58 175 22 58 176 23 59 177 25 59 178 24 59 179 25 60 180 27 60 181 26 60 182 27 61 183 29 61 184 28 61 185 29 62 186 31 62 187 30 62 188 31 63 189 33 63 190 32 63 191 33 64 192 35 64 193 34 64 194 35 65 195 37 65 196 36 65 197 37 66 198 39 66 199 38 66 200 39 67 201 41 67 202 40 67 203 41 68 204 43 68 205 42 68 206 43 69 207 45 69 208 44 69 209 45 70 210 47 70 211 46 70 212 47 71 213 49 71 214 48 71 215 49 72 216 51 72 217 50 72 218 51 73 219 53 73 220 52 73 221 53 74 222 55 74 223 54 74 224 55 75 225 57 75 226 56 75 227 57 76 228 59 76 229 58 76 230 59 77 231 61 77 232 60 77 233 61 78 234 63 78 235 62 78 236 63 79 237 65 79 238 64 79 239 65 80 240 67 80 241 66 80 242 67 81 243 69 81 244 68 81 245 69 82 246 71 82 247 70 82 248 71 83 249 73 83 250 72 83 251 17 84 252 15 84 253 13 84 254 13 85 255 75 85 256 73 85 257 73 86 258 71 86 259 65 86 260 71 87 261 69 87 262 65 87 263 69 88 264 67 88 265 65 88 266 65 89 267 63 89 268 61 89 269 61 90 270 59 90 271 57 90 272 57 91 273 55 91 274 49 91 275 55 92 276 53 92 277 49 92 278 53 93 279 51 93 280 49 93 281 49 94 282 47 94 283 45 94 284 45 95 285 43 95 286 41 95 287 41 96 288 39 96 289 33 96 290 39 97 291 37 97 292 33 97 293 37 98 294 35 98 295 33 98 296 33 99 297 31 99 298 29 99 299 29 100 300 27 100 301 25 100 302 25 101 303 23 101 304 17 101 305 23 102 306 21 102 307 17 102 308 21 103 309 19 103 310 17 103 311 17 104 312 13 104 313 73 104 314 65 105 315 61 105 316 57 105 317 49 106 318 45 106 319 41 106 320 33 107 321 29 107 322 25 107 323 17 108 324 73 108 325 65 108 326 65 109 327 57 109 328 49 109 329 49 110 330 41 110 331 33 110 332 33 111 333 25 111 334 17 111 335 17 112 336 65 112 337 49 112 338 73 113 339 75 113 340 74 113 341 75 114 342 13 114 343 12 114 344 74 115 345 12 115 346 18 115 347 12 116 348 14 116 349 18 116 350 14 117 351 16 117 352 18 117 353 18 118 354 20 118 355 22 118 356 22 119 357 24 119 358 26 119 359 26 120 360 28 120 361 34 120 362 28 121 363 30 121 364 34 121 365 30 122 366 32 122 367 34 122 368 34 123 369 36 123 370 38 123 371 38 124 372 40 124 373 42 124 374 42 125 375 44 125 376 50 125 377 44 126 378 46 126 379 50 126 380 46 127 381 48 127 382 50 127 383 50 128 384 52 128 385 54 128 386 54 129 387 56 129 388 58 129 389 58 130 390 60 130 391 66 130 392 60 131 393 62 131 394 66 131 395 62 132 396 64 132 397 66 132 398 66 133 399 68 133 400 70 133 401 70 134 402 72 134 403 74 134 404 18 135 405 22 135 406 26 135 407 34 136 408 38 136 409 42 136 410 50 137 411 54 137 412 58 137 413 66 138 414 70 138 415 74 138 416 74 139 417 18 139 418 26 139 419 26 140 420 34 140 421 42 140 422 42 141 423 50 141 424 58 141 425 58 142 426 66 142 427 74 142 428 74 143 429 26 143 430 42 143 431</p>
        </triangles>
      </mesh>
    </geometry>
    <geometry id="Cube_003-mesh" name="Cube.003">
      <mesh>
        <source id="Cube_003-mesh-positions">
          <float_array id="Cube_003-mesh-positions-array" count="228">-1 -1 -1 -1 1 -1 1 -1 -1 1 1 -1 -0.7197355 -0.7197355 1 -1 -1 0.7563756 -0.7197355 0.7197355 1 -1 1 0.7563756 0.7197355 -0.7197355 1 1 -1 0.7563756 0.7197355 0.7197355 1 1 1 0.7563756 0 0.6666666 0.995185 0 0.6666666 1.186584 0.1300602 0.6538568 0.995185 0.1300602 0.6538568 1.186584 0.2551223 0.6159197 0.995185 0.2551223 0.6159197 1.186584 0.3703801 0.554313 0.995185 0.3703801 0.554313 1.186584 0.4714045 0.4714045 0.995185 0.4714045 0.4714045 1.186584 0.554313 0.3703801 0.995185 0.554313 0.3703801 1.186584 0.6159197 0.2551223 0.995185 0.6159197 0.2551223 1.186584 0.6538568 0.1300602 0.995185 0.6538568 0.1300602 1.186584 0.6666666 0 0.995185 0.6666666 0 1.186584 0.6538568 -0.1300602 0.995185 0.6538568 -0.1300602 1.186584 0.6159197 -0.2551223 0.995185 0.6159197 -0.2551223 1.186584 0.554313 -0.3703801 0.995185 0.554313 -0.3703801 1.186584 0.4714045 -0.4714045 0.995185 0.4714045 -0.4714045 1.186584 0.3703801 -0.554313 0.995185 0.3703801 -0.554313 1.186584 0.2551223 -0.6159197 0.995185 0.2551223 -0.6159197 1.186584 0.1300602 -0.6538568 0.995185 0.1300602 -0.6538568 1.186584 0 -0.6666666 0.995185 0 -0.6666666 1.186584 -0.1300602 -0.6538568 0.995185 -0.1300602 -0.6538568 1.186584 -0.2551223 -0.6159197 0.995185 -0.2551223 -0.6159197 1.186584 -0.3703801 -0.554313 0.995185 -0.3703801 -0.554313 1.186584 -0.4714045 -0.4714045 0.995185 -0.4714045 -0.4714045 1.186584 -0.554313 -0.3703801 0.995185 -0.554313 -0.3703801 1.186584 -0.6159197 -0.2551223 0.995185 -0.6159197 -0.2551223 1.186584 -0.6538568 -0.1300602 0.995185 -0.6538568 -0.1300602 1.186584 -0.6666666 0 0.995185 -0.6666666 0 1.186584 -0.6538568 0.1300602 0.995185 -0.6538568 0.1300602 1.186584 -0.6159197 0.2551223 0.995185 -0.6159197 0.2551223 1.186584 -0.554313 0.3703801 0.995185 -0.554313 0.3703801 1.186584 -0.4714045 0.4714045 0.995185 -0.4714045 0.4714045 1.186584 -0.3703801 0.554313 0.995185 -0.3703801 0.554313 1.186584 -0.2551223 0.6159197 0.995185 -0.2551223 0.6159197 1.186584 -0.1300602 0.6538568 0.995185 -0.1300602 0.6538568 1.186584</float_array>
          <technique_common>
            <accessor source="#Cube_003-mesh-positions-array" count="76" stride="3">
              <param name="X" type="float"/>
              <param name="Y" type="float"/>
              <param name="Z" type="float"/>
            </accessor>
          </technique_common>
        </source>
        <source id="Cube_003-mesh-normals">
          <float_array id="Cube_003-mesh-normals-array" count="432">0 0 1 1 0 0 -1 0 0 0 0 -1 0 1 0 -0.6560502 0 0.7547174 0 0.6560502 0.7547174 0.6560502 0 0.7547174 0 -0.6560502 0.7547174 0 -1 0 0.09801709 0.9951847 0 0.2902847 0.9569403 0 0.4713969 0.8819212 0 0.634393 0.7730106 0 0.7730106 0.634393 0 0.8819212 0.4713969 0 0.9569403 0.2902847 0 0.9951847 0.09801709 0 0.9951847 -0.09801709 0 0.9569403 -0.2902847 0 0.8819212 -0.4713969 0 0.7730106 -0.634393 0 0.634393 -0.7730106 0 0.4713969 -0.8819212 0 0.2902847 -0.9569403 0 0.09801709 -0.9951847 0 -0.09801709 -0.9951847 0 -0.2902847 -0.9569403 0 -0.4713969 -0.8819212 0 -0.634393 -0.7730106 0 -0.7730106 -0.634393 0 -0.8819212 -0.4713969 0 -0.9569403 -0.2902847 0 -0.9951847 -0.09801709 0 -0.9951847 0.09801709 0 -0.9569403 0.2902847 0 -0.8819212 0.4713969 0 -0.7730106 0.634393 0 -0.634393 0.7730106 0 -0.4713969 0.8819212 0 0 0 1 -0.2902847 0.9569403 0 -0.09801709 0.9951847 0 0 0 -1 0 0 1 1 0 0 -1 0 0 0 0 -1 0 1 0 -0.6560502 0 0.7547174 0 0.6560502 0.7547174 0.6560502 0 0.7547174 0 -0.6560502 0.7547174 0 -1 0 0.09801709 0.9951847 0 0.2902847 0.9569403 0 0.4713969 0.8819212 0 0.634393 0.7730106 0 0.7730106 0.634393 0 0.8819212 0.4713969 0 0.9569403 0.2902847 0 0.9951847 0.09801709 0 0.9951847 -0.09801709 0 0.9569403 -0.2902847 0 0.8819212 -0.4713969 0 0.7730106 -0.634393 0 0.634393 -0.7730106 0 0.4713969 -0.8819212 0 0.2902847 -0.9569403 0 0.09801709 -0.9951847 0 -0.09801709 -0.9951847 0 -0.2902847 -0.9569403 0 -0.4713969 -0.8819212 0 -0.634393 -0.7730106 0 -0.7730106 -0.634393 0 -0.8819212 -0.4713969 0 -0.9569403 -0.2902847 0 -0.9951847 -0.09801709 0 -0.9951847 0.09801709 0 -0.9569403 0.2902847 0 -0.8819212 0.4713969 0 -0.7730106 0.634393 0 -0.634393 0.7730106 0 -0.4713969 0.8819212 0 0 0 1 0 0 1 0 0 1 0 0 1 0 0 1 0 0 1 0 0 1 0 0 1 0 0 1 0 0 1 0 0 1 0 0 1 0 0 1 0 0 1 0 0 1 0 0 1 0 0 1 0 0 1 0 0 1 0 0 1 0 0 1 0 0 1 0 0 1 0 0 1 0 0 1 0 0 1 0 0 1 0 0 1 0 0 1 -0.2902847 0.9569403 0 -0.09801709 0.9951847 0 0 0 -1 0 0 -1 0 0 -1 0 0 -1 0 0 -1 0 0 -1 0 0 -1 0 0 -1 0 0 -1 0 0 -1 0 0 -1 0 0 -1 0 0 -1 0 0 -1 0 0 -1 0 0 -1 0 0 -1 0 0 -1 0 0 -1 0 0 -1 0 0 -1 0 0 -1 0 0 -1 0 0 -1 0 0 -1 0 0 -1 0 0 -1 0 0 -1 0 0 -1</float_array>
          <technique_common>
            <accessor source="#Cube_003-mesh-normals-array" count="144" stride="3">
              <param name="X" type="float"/>
              <param name="Y" type="float"/>
              <param name="Z" type="float"/>
            </accessor>
          </technique_common>
        </source>
        <source id="Cube_003-mesh-map-0">
          <float_array id="Cube_003-mesh-map-0-array" count="864">0.8399669 0.5350331 0.6600331 0.714967 0.6600331 0.5350331 0.589967 0.5 0.375 0.75 0.375 0.5 0.589967 0 0.375 0.25 0.375 0 0.375 0.5 0.125 0.75 0.125 0.5 0.589967 0.25 0.375 0.5 0.375 0.25 0.8399669 0.5350331 0.875 0.75 0.839967 0.7149669 0.6600331 0.5350331 0.875 0.5 0.8399669 0.5350331 0.6600331 0.714967 0.589967 0.5 0.6600331 0.5350331 0.839967 0.7149669 0.625 0.75 0.6600331 0.714967 0.589967 0.75 0.375 1 0.375 0.75 1 1 0.96875 0.5 1 0.5 0.96875 1 0.9375 0.5 0.96875 0.5 0.9375 1 0.90625 0.5 0.9375 0.5 0.90625 1 0.875 0.5 0.90625 0.5 0.875 1 0.84375 0.5 0.875 0.5 0.84375 1 0.8125 0.5 0.84375 0.5 0.8125 1 0.78125 0.5 0.8125 0.5 0.78125 1 0.75 0.5 0.78125 0.5 0.75 1 0.71875 0.5 0.75 0.5 0.71875 1 0.6875 0.5 0.71875 0.5 0.6875 1 0.65625 0.5 0.6875 0.5 0.65625 1 0.625 0.5 0.65625 0.5 0.625 1 0.59375 0.5 0.625 0.5 0.59375 1 0.5625 0.5 0.59375 0.5 0.5625 1 0.53125 0.5 0.5625 0.5 0.53125 1 0.5 0.5 0.53125 0.5 0.5 1 0.46875 0.5 0.5 0.5 0.46875 1 0.4375 0.5 0.46875 0.5 0.4375 1 0.40625 0.5 0.4375 0.5 0.40625 1 0.375 0.5 0.40625 0.5 0.375 1 0.34375 0.5 0.375 0.5 0.34375 1 0.3125 0.5 0.34375 0.5 0.3125 1 0.28125 0.5 0.3125 0.5 0.28125 1 0.25 0.5 0.28125 0.5 0.25 1 0.21875 0.5 0.25 0.5 0.21875 1 0.1875 0.5 0.21875 0.5 0.1875 1 0.15625 0.5 0.1875 0.5 0.15625 1 0.125 0.5 0.15625 0.5 0.125 1 0.09375 0.5 0.125 0.5 0.09375 1 0.0625 0.5 0.09375 0.5 0.1581559 0.02826887 0.4717311 0.1581559 0.341844 0.4717311 0.0625 1 0.03125 0.5 0.0625 0.5 0.03125 1 0 0.5 0.03125 0.5 0.7968217 0.01461154 0.5146116 0.2031783 0.7031784 0.4853885 0.8399669 0.5350331 0.839967 0.7149669 0.6600331 0.714967 0.589967 0.5 0.589967 0.75 0.375 0.75 0.589967 0 0.589967 0.25 0.375 0.25 0.375 0.5 0.375 0.75 0.125 0.75 0.589967 0.25 0.589967 0.5 0.375 0.5 0.8399669 0.5350331 0.875 0.5 0.875 0.75 0.6600331 0.5350331 0.625 0.5 0.875 0.5 0.6600331 0.714967 0.589967 0.75 0.589967 0.5 0.839967 0.7149669 0.875 0.75 0.625 0.75 0.589967 0.75 0.589967 1 0.375 1 1 1 0.96875 1 0.96875 0.5 0.96875 1 0.9375 1 0.9375 0.5 0.9375 1 0.90625 1 0.90625 0.5 0.90625 1 0.875 1 0.875 0.5 0.875 1 0.84375 1 0.84375 0.5 0.84375 1 0.8125 1 0.8125 0.5 0.8125 1 0.78125 1 0.78125 0.5 0.78125 1 0.75 1 0.75 0.5 0.75 1 0.71875 1 0.71875 0.5 0.71875 1 0.6875 1 0.6875 0.5 0.6875 1 0.65625 1 0.65625 0.5 0.65625 1 0.625 1 0.625 0.5 0.625 1 0.59375 1 0.59375 0.5 0.59375 1 0.5625 1 0.5625 0.5 0.5625 1 0.53125 1 0.53125 0.5 0.53125 1 0.5 1 0.5 0.5 0.5 1 0.46875 1 0.46875 0.5 0.46875 1 0.4375 1 0.4375 0.5 0.4375 1 0.40625 1 0.40625 0.5 0.40625 1 0.375 1 0.375 0.5 0.375 1 0.34375 1 0.34375 0.5 0.34375 1 0.3125 1 0.3125 0.5 0.3125 1 0.28125 1 0.28125 0.5 0.28125 1 0.25 1 0.25 0.5 0.25 1 0.21875 1 0.21875 0.5 0.21875 1 0.1875 1 0.1875 0.5 0.1875 1 0.15625 1 0.15625 0.5 0.15625 1 0.125 1 0.125 0.5 0.125 1 0.09375 1 0.09375 0.5 0.09375 1 0.0625 1 0.0625 0.5 0.341844 0.4717311 0.2968217 0.4853885 0.25 0.49 0.25 0.49 0.2031783 0.4853885 0.1581559 0.4717311 0.1581559 0.4717311 0.1166631 0.4495527 0.02826887 0.341844 0.1166631 0.4495527 0.08029437 0.4197056 0.02826887 0.341844 0.08029437 0.4197056 0.05044728 0.3833369 0.02826887 0.341844 0.02826887 0.341844 0.01461154 0.2968217 0.00999999 0.25 0.00999999 0.25 0.01461154 0.2031783 0.02826887 0.1581559 0.02826887 0.1581559 0.05044728 0.1166631 0.1581559 0.02826887 0.05044728 0.1166631 0.08029437 0.08029437 0.1581559 0.02826887 0.08029437 0.08029437 0.1166631 0.05044728 0.1581559 0.02826887 0.1581559 0.02826887 0.2031783 0.01461154 0.25 0.00999999 0.25 0.00999999 0.2968217 0.01461154 0.341844 0.02826887 0.341844 0.02826887 0.3833369 0.05044728 0.4717311 0.1581559 0.3833369 0.05044728 0.4197056 0.08029437 0.4717311 0.1581559 0.4197056 0.08029437 0.4495527 0.1166631 0.4717311 0.1581559 0.4717311 0.1581559 0.4853885 0.2031783 0.49 0.25 0.49 0.25 0.4853885 0.2968217 0.4717311 0.341844 0.4717311 0.341844 0.4495527 0.3833369 0.341844 0.4717311 0.4495527 0.3833369 0.4197056 0.4197056 0.341844 0.4717311 0.4197056 0.4197056 0.3833369 0.4495527 0.341844 0.4717311 0.341844 0.4717311 0.25 0.49 0.1581559 0.4717311 0.02826887 0.341844 0.00999999 0.25 0.02826887 0.1581559 0.1581559 0.02826887 0.25 0.00999999 0.341844 0.02826887 0.4717311 0.1581559 0.49 0.25 0.4717311 0.341844 0.341844 0.4717311 0.1581559 0.4717311 0.02826887 0.341844 0.02826887 0.341844 0.02826887 0.1581559 0.1581559 0.02826887 0.1581559 0.02826887 0.341844 0.02826887 0.4717311 0.1581559 0.4717311 0.1581559 0.4717311 0.341844 0.341844 0.4717311 0.341844 0.4717311 0.02826887 0.341844 0.1581559 0.02826887 0.0625 1 0.03125 1 0.03125 0.5 0.03125 1 0 1 0 0.5 0.7031784 0.4853885 0.75 0.49 0.8833369 0.4495527 0.75 0.49 0.7968217 0.4853885 0.8833369 0.4495527 0.7968217 0.4853885 0.841844 0.4717311 0.8833369 0.4495527 0.8833369 0.4495527 0.9197056 0.4197056 0.9495527 0.3833369 0.9495527 0.3833369 0.9717311 0.341844 0.9853885 0.2968217 0.9853885 0.2968217 0.99 0.25 0.9495527 0.1166631 0.99 0.25 0.9853885 0.2031783 0.9495527 0.1166631 0.9853885 0.2031783 0.9717311 0.1581559 0.9495527 0.1166631 0.9495527 0.1166631 0.9197056 0.08029437 0.8833369 0.05044728 0.8833369 0.05044728 0.841844 0.02826887 0.7968217 0.01461154 0.7968217 0.01461154 0.75 0.00999999 0.6166632 0.05044728 0.75 0.00999999 0.7031784 0.01461154 0.6166632 0.05044728 0.7031784 0.01461154 0.658156 0.02826887 0.6166632 0.05044728 0.6166632 0.05044728 0.5802944 0.08029437 0.5504473 0.1166631 0.5504473 0.1166631 0.5282689 0.1581559 0.5146116 0.2031783 0.5146116 0.2031783 0.51 0.25 0.5504473 0.3833369 0.51 0.25 0.5146116 0.2968217 0.5504473 0.3833369 0.5146116 0.2968217 0.5282689 0.341844 0.5504473 0.3833369 0.5504473 0.3833369 0.5802944 0.4197056 0.6166632 0.4495527 0.6166632 0.4495527 0.658156 0.4717311 0.7031784 0.4853885 0.8833369 0.4495527 0.9495527 0.3833369 0.9853885 0.2968217 0.9495527 0.1166631 0.8833369 0.05044728 0.7968217 0.01461154 0.6166632 0.05044728 0.5504473 0.1166631 0.5146116 0.2031783 0.5504473 0.3833369 0.6166632 0.4495527 0.7031784 0.4853885 0.7031784 0.4853885 0.8833369 0.4495527 0.9853885 0.2968217 0.9853885 0.2968217 0.9495527 0.1166631 0.7968217 0.01461154 0.7968217 0.01461154 0.6166632 0.05044728 0.5146116 0.2031783 0.5146116 0.2031783 0.5504473 0.3833369 0.7031784 0.4853885 0.7031784 0.4853885 0.9853885 0.2968217 0.7968217 0.01461154</float_array>
          <technique_common>
            <accessor source="#Cube_003-mesh-map-0-array" count="432" stride="2">
              <param name="S" type="float"/>
              <param name="T" type="float"/>
            </accessor>
          </technique_common>
        </source>
        <vertices id="Cube_003-mesh-vertices">
          <input semantic="POSITION" source="#Cube_003-mesh-positions"/>
        </vertices>
        <triangles material="Pink-material" count="144">
          <input semantic="VERTEX" source="#Cube_003-mesh-vertices" offset="0"/>
          <input semantic="NORMAL" source="#Cube_003-mesh-normals" offset="1"/>
          <input semantic="TEXCOORD" source="#Cube_003-mesh-map-0" offset="2" set="0"/>
          <p>6 0 0 8 0 1 10 0 2 11 1 3 2 1 4 3 1 5 5 2 6 1 2 7 0 2 8 3 3 9 0 3 10 1 3 11 7 4 12 3 4 13 1 4 14 6 5 15 5 5 16 4 5 17 10 6 18 7 6 19 6 6 20 8 7 21 11 7 22 10 7 23 4 8 24 9 8 25 8 8 26 9 9 27 0 9 28 2 9 29 13 10 30 14 10 31 12 10 32 15 11 33 16 11 34 14 11 35 17 12 36 18 12 37 16 12 38 19 13 39 20 13 40 18 13 41 21 14 42 22 14 43 20 14 44 23 15 45 24 15 46 22 15 47 25 16 48 26 16 49 24 16 50 27 17 51 28 17 52 26 17 53 29 18 54 30 18 55 28 18 56 31 19 57 32 19 58 30 19 59 33 20 60 34 20 61 32 20 62 35 21 63 36 21 64 34 21 65 37 22 66 38 22 67 36 22 68 39 23 69 40 23 70 38 23 71 41 24 72 42 24 73 40 24 74 43 25 75 44 25 76 42 25 77 45 26 78 46 26 79 44 26 80 47 27 81 48 27 82 46 27 83 49 28 84 50 28 85 48 28 86 51 29 87 52 29 88 50 29 89 53 30 90 54 30 91 52 30 92 55 31 93 56 31 94 54 31 95 57 32 96 58 32 97 56 32 98 59 33 99 60 33 100 58 33 101 61 34 102 62 34 103 60 34 104 63 35 105 64 35 106 62 35 107 65 36 108 66 36 109 64 36 110 67 37 111 68 37 112 66 37 113 69 38 114 70 38 115 68 38 116 71 39 117 72 39 118 70 39 119 49 40 120 33 40 121 17 40 122 73 41 123 74 41 124 72 41 125 75 42 126 12 42 127 74 42 128 42 43 129 58 43 130 74 43 131 6 44 132 4 44 133 8 44 134 11 45 135 9 45 136 2 45 137 5 46 138 7 46 139 1 46 140 3 47 141 2 47 142 0 47 143 7 48 144 11 48 145 3 48 146 6 49 147 7 49 148 5 49 149 10 50 150 11 50 151 7 50 152 8 51 153 9 51 154 11 51 155 4 52 156 5 52 157 9 52 158 9 53 159 5 53 160 0 53 161 13 54 162 15 54 163 14 54 164 15 55 165 17 55 166 16 55 167 17 56 168 19 56 169 18 56 170 19 57 171 21 57 172 20 57 173 21 58 174 23 58 175 22 58 176 23 59 177 25 59 178 24 59 179 25 60 180 27 60 181 26 60 182 27 61 183 29 61 184 28 61 185 29 62 186 31 62 187 30 62 188 31 63 189 33 63 190 32 63 191 33 64 192 35 64 193 34 64 194 35 65 195 37 65 196 36 65 197 37 66 198 39 66 199 38 66 200 39 67 201 41 67 202 40 67 203 41 68 204 43 68 205 42 68 206 43 69 207 45 69 208 44 69 209 45 70 210 47 70 211 46 70 212 47 71 213 49 71 214 48 71 215 49 72 216 51 72 217 50 72 218 51 73 219 53 73 220 52 73 221 53 74 222 55 74 223 54 74 224 55 75 225 57 75 226 56 75 227 57 76 228 59 76 229 58 76 230 59 77 231 61 77 232 60 77 233 61 78 234 63 78 235 62 78 236 63 79 237 65 79 238 64 79 239 65 80 240 67 80 241 66 80 242 67 81 243 69 81 244 68 81 245 69 82 246 71 82 247 70 82 248 71 83 249 73 83 250 72 83 251 17 84 252 15 84 253 13 84 254 13 85 255 75 85 256 73 85 257 73 86 258 71 86 259 65 86 260 71 87 261 69 87 262 65 87 263 69 88 264 67 88 265 65 88 266 65 89 267 63 89 268 61 89 269 61 90 270 59 90 271 57 90 272 57 91 273 55 91 274 49 91 275 55 92 276 53 92 277 49 92 278 53 93 279 51 93 280 49 93 281 49 94 282 47 94 283 45 94 284 45 95 285 43 95 286 41 95 287 41 96 288 39 96 289 33 96 290 39 97 291 37 97 292 33 97 293 37 98 294 35 98 295 33 98 296 33 99 297 31 99 298 29 99 299 29 100 300 27 100 301 25 100 302 25 101 303 23 101 304 17 101 305 23 102 306 21 102 307 17 102 308 21 103 309 19 103 310 17 103 311 17 104 312 13 104 313 73 104 314 65 105 315 61 105 316 57 105 317 49 106 318 45 106 319 41 106 320 33 107 321 29 107 322 25 107 323 17 108 324 73 108 325 65 108 326 65 109 327 57 109 328 49 109 329 49 110 330 41 110 331 33 110 332 33 111 333 25 111 334 17 111 335 17 112 336 65 112 337 49 112 338 73 113 339 75 113 340 74 113 341 75 114 342 13 114 343 12 114 344 74 115 345 12 115 346 18 115 347 12 116 348 14 116 349 18 116 350 14 117 351 16 117 352 18 117 353 18 118 354 20 118 355 22 118 356 22 119 357 24 119 358 26 119 359 26 120 360 28 120 361 34 120 362 28 121 363 30 121 364 34 121 365 30 122 366 32 122 367 34 122 368 34 123 369 36 123 370 38 123 371 38 124 372 40 124 373 42 124 374 42 125 375 44 125 376 50 125 377 44 126 378 46 126 379 50 126 380 46 127 381 48 127 382 50 127 383 50 128 384 52 128 385 54 128 386 54 129 387 56 129 388 58 129 389 58 130 390 60 130 391 66 130 392 60 131 393 62 131 394 66 131 395 62 132 396 64 132 397 66 132 398 66 133 399 68 133 400 70 133 401 70 134 402 72 134 403 74 134 404 18 135 405 22 135 406 26 135 407 34 136 408 38 136 409 42 136 410 50 137 411 54 137 412 58 137 413 66 138 414 70 138 415 74 138 416 74 139 417 18 139 418 26 139 419 26 140 420 34 140 421 42 140 422 42 141 423 50 141 424 58 141 425 58 142 426 66 142 427 74 142 428 74 143 429 26 143 430 42 143 431</p>
        </triangles>
      </mesh>
    </geometry>
    <geometry id="Cube_002-mesh" name="Cube.002">
      <mesh>
        <source id="Cube_002-mesh-positions">
          <float_array id="Cube_002-mesh-positions-array" count="228">-1 -1 -1 -1 1 -1 1 -1 -1 1 1 -1 -0.7197355 -0.7197355 1 -1 -1 0.7563756 -0.7197355 0.7197355 1 -1 1 0.7563756 0.7197355 -0.7197355 1 1 -1 0.7563756 0.7197355 0.7197355 1 1 1 0.7563756 0 0.6666666 0.995185 0 0.6666666 1.186584 0.1300602 0.6538568 0.995185 0.1300602 0.6538568 1.186584 0.2551223 0.6159197 0.995185 0.2551223 0.6159197 1.186584 0.3703801 0.554313 0.995185 0.3703801 0.554313 1.186584 0.4714045 0.4714045 0.995185 0.4714045 0.4714045 1.186584 0.554313 0.3703801 0.995185 0.554313 0.3703801 1.186584 0.6159197 0.2551223 0.995185 0.6159197 0.2551223 1.186584 0.6538568 0.1300602 0.995185 0.6538568 0.1300602 1.186584 0.6666666 0 0.995185 0.6666666 0 1.186584 0.6538568 -0.1300602 0.995185 0.6538568 -0.1300602 1.186584 0.6159197 -0.2551223 0.995185 0.6159197 -0.2551223 1.186584 0.554313 -0.3703801 0.995185 0.554313 -0.3703801 1.186584 0.4714045 -0.4714045 0.995185 0.4714045 -0.4714045 1.186584 0.3703801 -0.554313 0.995185 0.3703801 -0.554313 1.186584 0.2551223 -0.6159197 0.995185 0.2551223 -0.6159197 1.186584 0.1300602 -0.6538568 0.995185 0.1300602 -0.6538568 1.186584 0 -0.6666666 0.995185 0 -0.6666666 1.186584 -0.1300602 -0.6538568 0.995185 -0.1300602 -0.6538568 1.186584 -0.2551223 -0.6159197 0.995185 -0.2551223 -0.6159197 1.186584 -0.3703801 -0.554313 0.995185 -0.3703801 -0.554313 1.186584 -0.4714045 -0.4714045 0.995185 -0.4714045 -0.4714045 1.186584 -0.554313 -0.3703801 0.995185 -0.554313 -0.3703801 1.186584 -0.6159197 -0.2551223 0.995185 -0.6159197 -0.2551223 1.186584 -0.6538568 -0.1300602 0.995185 -0.6538568 -0.1300602 1.186584 -0.6666666 0 0.995185 -0.6666666 0 1.186584 -0.6538568 0.1300602 0.995185 -0.6538568 0.1300602 1.186584 -0.6159197 0.2551223 0.995185 -0.6159197 0.2551223 1.186584 -0.554313 0.3703801 0.995185 -0.554313 0.3703801 1.186584 -0.4714045 0.4714045 0.995185 -0.4714045 0.4714045 1.186584 -0.3703801 0.554313 0.995185 -0.3703801 0.554313 1.186584 -0.2551223 0.6159197 0.995185 -0.2551223 0.6159197 1.186584 -0.1300602 0.6538568 0.995185 -0.1300602 0.6538568 1.186584</float_array>
          <technique_common>
            <accessor source="#Cube_002-mesh-positions-array" count="76" stride="3">
              <param name="X" type="float"/>
              <param name="Y" type="float"/>
              <param name="Z" type="float"/>
            </accessor>
          </technique_common>
        </source>
        <source id="Cube_002-mesh-normals">
          <float_array id="Cube_002-mesh-normals-array" count="432">0 0 1 1 0 0 -1 0 0 0 0 -1 0 1 0 -0.6560502 0 0.7547174 0 0.6560502 0.7547174 0.6560502 0 0.7547174 0 -0.6560502 0.7547174 0 -1 0 0.09801709 0.9951847 0 0.2902847 0.9569403 0 0.4713969 0.8819212 0 0.634393 0.7730106 0 0.7730106 0.634393 0 0.8819212 0.4713969 0 0.9569403 0.2902847 0 0.9951847 0.09801709 0 0.9951847 -0.09801709 0 0.9569403 -0.2902847 0 0.8819212 -0.4713969 0 0.7730106 -0.634393 0 0.634393 -0.7730106 0 0.4713969 -0.8819212 0 0.2902847 -0.9569403 0 0.09801709 -0.9951847 0 -0.09801709 -0.9951847 0 -0.2902847 -0.9569403 0 -0.4713969 -0.8819212 0 -0.634393 -0.7730106 0 -0.7730106 -0.634393 0 -0.8819212 -0.4713969 0 -0.9569403 -0.2902847 0 -0.9951847 -0.09801709 0 -0.9951847 0.09801709 0 -0.9569403 0.2902847 0 -0.8819212 0.4713969 0 -0.7730106 0.634393 0 -0.634393 0.7730106 0 -0.4713969 0.8819212 0 0 0 1 -0.2902847 0.9569403 0 -0.09801709 0.9951847 0 0 0 -1 0 0 1 1 0 0 -1 0 0 0 0 -1 0 1 0 -0.6560502 0 0.7547174 0 0.6560502 0.7547174 0.6560502 0 0.7547174 0 -0.6560502 0.7547174 0 -1 0 0.09801709 0.9951847 0 0.2902847 0.9569403 0 0.4713969 0.8819212 0 0.634393 0.7730106 0 0.7730106 0.634393 0 0.8819212 0.4713969 0 0.9569403 0.2902847 0 0.9951847 0.09801709 0 0.9951847 -0.09801709 0 0.9569403 -0.2902847 0 0.8819212 -0.4713969 0 0.7730106 -0.634393 0 0.634393 -0.7730106 0 0.4713969 -0.8819212 0 0.2902847 -0.9569403 0 0.09801709 -0.9951847 0 -0.09801709 -0.9951847 0 -0.2902847 -0.9569403 0 -0.4713969 -0.8819212 0 -0.634393 -0.7730106 0 -0.7730106 -0.634393 0 -0.8819212 -0.4713969 0 -0.9569403 -0.2902847 0 -0.9951847 -0.09801709 0 -0.9951847 0.09801709 0 -0.9569403 0.2902847 0 -0.8819212 0.4713969 0 -0.7730106 0.634393 0 -0.634393 0.7730106 0 -0.4713969 0.8819212 0 0 0 1 0 0 1 0 0 1 0 0 1 0 0 1 0 0 1 0 0 1 0 0 1 0 0 1 0 0 1 0 0 1 0 0 1 0 0 1 0 0 1 0 0 1 0 0 1 0 0 1 0 0 1 0 0 1 0 0 1 0 0 1 0 0 1 0 0 1 0 0 1 0 0 1 0 0 1 0 0 1 0 0 1 0 0 1 -0.2902847 0.9569403 0 -0.09801709 0.9951847 0 0 0 -1 0 0 -1 0 0 -1 0 0 -1 0 0 -1 0 0 -1 0 0 -1 0 0 -1 0 0 -1 0 0 -1 0 0 -1 0 0 -1 0 0 -1 0 0 -1 0 0 -1 0 0 -1 0 0 -1 0 0 -1 0 0 -1 0 0 -1 0 0 -1 0 0 -1 0 0 -1 0 0 -1 0 0 -1 0 0 -1 0 0 -1 0 0 -1 0 0 -1</float_array>
          <technique_common>
            <accessor source="#Cube_002-mesh-normals-array" count="144" stride="3">
              <param name="X" type="float"/>
              <param name="Y" type="float"/>
              <param name="Z" type="float"/>
            </accessor>
          </technique_common>
        </source>
        <source id="Cube_002-mesh-map-0">
          <float_array id="Cube_002-mesh-map-0-array" count="864">0.8399669 0.5350331 0.6600331 0.714967 0.6600331 0.5350331 0.589967 0.5 0.375 0.75 0.375 0.5 0.589967 0 0.375 0.25 0.375 0 0.375 0.5 0.125 0.75 0.125 0.5 0.589967 0.25 0.375 0.5 0.375 0.25 0.8399669 0.5350331 0.875 0.75 0.839967 0.7149669 0.6600331 0.5350331 0.875 0.5 0.8399669 0.5350331 0.6600331 0.714967 0.589967 0.5 0.6600331 0.5350331 0.839967 0.7149669 0.625 0.75 0.6600331 0.714967 0.589967 0.75 0.375 1 0.375 0.75 1 1 0.96875 0.5 1 0.5 0.96875 1 0.9375 0.5 0.96875 0.5 0.9375 1 0.90625 0.5 0.9375 0.5 0.90625 1 0.875 0.5 0.90625 0.5 0.875 1 0.84375 0.5 0.875 0.5 0.84375 1 0.8125 0.5 0.84375 0.5 0.8125 1 0.78125 0.5 0.8125 0.5 0.78125 1 0.75 0.5 0.78125 0.5 0.75 1 0.71875 0.5 0.75 0.5 0.71875 1 0.6875 0.5 0.71875 0.5 0.6875 1 0.65625 0.5 0.6875 0.5 0.65625 1 0.625 0.5 0.65625 0.5 0.625 1 0.59375 0.5 0.625 0.5 0.59375 1 0.5625 0.5 0.59375 0.5 0.5625 1 0.53125 0.5 0.5625 0.5 0.53125 1 0.5 0.5 0.53125 0.5 0.5 1 0.46875 0.5 0.5 0.5 0.46875 1 0.4375 0.5 0.46875 0.5 0.4375 1 0.40625 0.5 0.4375 0.5 0.40625 1 0.375 0.5 0.40625 0.5 0.375 1 0.34375 0.5 0.375 0.5 0.34375 1 0.3125 0.5 0.34375 0.5 0.3125 1 0.28125 0.5 0.3125 0.5 0.28125 1 0.25 0.5 0.28125 0.5 0.25 1 0.21875 0.5 0.25 0.5 0.21875 1 0.1875 0.5 0.21875 0.5 0.1875 1 0.15625 0.5 0.1875 0.5 0.15625 1 0.125 0.5 0.15625 0.5 0.125 1 0.09375 0.5 0.125 0.5 0.09375 1 0.0625 0.5 0.09375 0.5 0.1581559 0.02826887 0.4717311 0.1581559 0.341844 0.4717311 0.0625 1 0.03125 0.5 0.0625 0.5 0.03125 1 0 0.5 0.03125 0.5 0.7968217 0.01461154 0.5146116 0.2031783 0.7031784 0.4853885 0.8399669 0.5350331 0.839967 0.7149669 0.6600331 0.714967 0.589967 0.5 0.589967 0.75 0.375 0.75 0.589967 0 0.589967 0.25 0.375 0.25 0.375 0.5 0.375 0.75 0.125 0.75 0.589967 0.25 0.589967 0.5 0.375 0.5 0.8399669 0.5350331 0.875 0.5 0.875 0.75 0.6600331 0.5350331 0.625 0.5 0.875 0.5 0.6600331 0.714967 0.589967 0.75 0.589967 0.5 0.839967 0.7149669 0.875 0.75 0.625 0.75 0.589967 0.75 0.589967 1 0.375 1 1 1 0.96875 1 0.96875 0.5 0.96875 1 0.9375 1 0.9375 0.5 0.9375 1 0.90625 1 0.90625 0.5 0.90625 1 0.875 1 0.875 0.5 0.875 1 0.84375 1 0.84375 0.5 0.84375 1 0.8125 1 0.8125 0.5 0.8125 1 0.78125 1 0.78125 0.5 0.78125 1 0.75 1 0.75 0.5 0.75 1 0.71875 1 0.71875 0.5 0.71875 1 0.6875 1 0.6875 0.5 0.6875 1 0.65625 1 0.65625 0.5 0.65625 1 0.625 1 0.625 0.5 0.625 1 0.59375 1 0.59375 0.5 0.59375 1 0.5625 1 0.5625 0.5 0.5625 1 0.53125 1 0.53125 0.5 0.53125 1 0.5 1 0.5 0.5 0.5 1 0.46875 1 0.46875 0.5 0.46875 1 0.4375 1 0.4375 0.5 0.4375 1 0.40625 1 0.40625 0.5 0.40625 1 0.375 1 0.375 0.5 0.375 1 0.34375 1 0.34375 0.5 0.34375 1 0.3125 1 0.3125 0.5 0.3125 1 0.28125 1 0.28125 0.5 0.28125 1 0.25 1 0.25 0.5 0.25 1 0.21875 1 0.21875 0.5 0.21875 1 0.1875 1 0.1875 0.5 0.1875 1 0.15625 1 0.15625 0.5 0.15625 1 0.125 1 0.125 0.5 0.125 1 0.09375 1 0.09375 0.5 0.09375 1 0.0625 1 0.0625 0.5 0.341844 0.4717311 0.2968217 0.4853885 0.25 0.49 0.25 0.49 0.2031783 0.4853885 0.1581559 0.4717311 0.1581559 0.4717311 0.1166631 0.4495527 0.02826887 0.341844 0.1166631 0.4495527 0.08029437 0.4197056 0.02826887 0.341844 0.08029437 0.4197056 0.05044728 0.3833369 0.02826887 0.341844 0.02826887 0.341844 0.01461154 0.2968217 0.00999999 0.25 0.00999999 0.25 0.01461154 0.2031783 0.02826887 0.1581559 0.02826887 0.1581559 0.05044728 0.1166631 0.1581559 0.02826887 0.05044728 0.1166631 0.08029437 0.08029437 0.1581559 0.02826887 0.08029437 0.08029437 0.1166631 0.05044728 0.1581559 0.02826887 0.1581559 0.02826887 0.2031783 0.01461154 0.25 0.00999999 0.25 0.00999999 0.2968217 0.01461154 0.341844 0.02826887 0.341844 0.02826887 0.3833369 0.05044728 0.4717311 0.1581559 0.3833369 0.05044728 0.4197056 0.08029437 0.4717311 0.1581559 0.4197056 0.08029437 0.4495527 0.1166631 0.4717311 0.1581559 0.4717311 0.1581559 0.4853885 0.2031783 0.49 0.25 0.49 0.25 0.4853885 0.2968217 0.4717311 0.341844 0.4717311 0.341844 0.4495527 0.3833369 0.341844 0.4717311 0.4495527 0.3833369 0.4197056 0.4197056 0.341844 0.4717311 0.4197056 0.4197056 0.3833369 0.4495527 0.341844 0.4717311 0.341844 0.4717311 0.25 0.49 0.1581559 0.4717311 0.02826887 0.341844 0.00999999 0.25 0.02826887 0.1581559 0.1581559 0.02826887 0.25 0.00999999 0.341844 0.02826887 0.4717311 0.1581559 0.49 0.25 0.4717311 0.341844 0.341844 0.4717311 0.1581559 0.4717311 0.02826887 0.341844 0.02826887 0.341844 0.02826887 0.1581559 0.1581559 0.02826887 0.1581559 0.02826887 0.341844 0.02826887 0.4717311 0.1581559 0.4717311 0.1581559 0.4717311 0.341844 0.341844 0.4717311 0.341844 0.4717311 0.02826887 0.341844 0.1581559 0.02826887 0.0625 1 0.03125 1 0.03125 0.5 0.03125 1 0 1 0 0.5 0.7031784 0.4853885 0.75 0.49 0.8833369 0.4495527 0.75 0.49 0.7968217 0.4853885 0.8833369 0.4495527 0.7968217 0.4853885 0.841844 0.4717311 0.8833369 0.4495527 0.8833369 0.4495527 0.9197056 0.4197056 0.9495527 0.3833369 0.9495527 0.3833369 0.9717311 0.341844 0.9853885 0.2968217 0.9853885 0.2968217 0.99 0.25 0.9495527 0.1166631 0.99 0.25 0.9853885 0.2031783 0.9495527 0.1166631 0.9853885 0.2031783 0.9717311 0.1581559 0.9495527 0.1166631 0.9495527 0.1166631 0.9197056 0.08029437 0.8833369 0.05044728 0.8833369 0.05044728 0.841844 0.02826887 0.7968217 0.01461154 0.7968217 0.01461154 0.75 0.00999999 0.6166632 0.05044728 0.75 0.00999999 0.7031784 0.01461154 0.6166632 0.05044728 0.7031784 0.01461154 0.658156 0.02826887 0.6166632 0.05044728 0.6166632 0.05044728 0.5802944 0.08029437 0.5504473 0.1166631 0.5504473 0.1166631 0.5282689 0.1581559 0.5146116 0.2031783 0.5146116 0.2031783 0.51 0.25 0.5504473 0.3833369 0.51 0.25 0.5146116 0.2968217 0.5504473 0.3833369 0.5146116 0.2968217 0.5282689 0.341844 0.5504473 0.3833369 0.5504473 0.3833369 0.5802944 0.4197056 0.6166632 0.4495527 0.6166632 0.4495527 0.658156 0.4717311 0.7031784 0.4853885 0.8833369 0.4495527 0.9495527 0.3833369 0.9853885 0.2968217 0.9495527 0.1166631 0.8833369 0.05044728 0.7968217 0.01461154 0.6166632 0.05044728 0.5504473 0.1166631 0.5146116 0.2031783 0.5504473 0.3833369 0.6166632 0.4495527 0.7031784 0.4853885 0.7031784 0.4853885 0.8833369 0.4495527 0.9853885 0.2968217 0.9853885 0.2968217 0.9495527 0.1166631 0.7968217 0.01461154 0.7968217 0.01461154 0.6166632 0.05044728 0.5146116 0.2031783 0.5146116 0.2031783 0.5504473 0.3833369 0.7031784 0.4853885 0.7031784 0.4853885 0.9853885 0.2968217 0.7968217 0.01461154</float_array>
          <technique_common>
            <accessor source="#Cube_002-mesh-map-0-array" count="432" stride="2">
              <param name="S" type="float"/>
              <param name="T" type="float"/>
            </accessor>
          </technique_common>
        </source>
        <vertices id="Cube_002-mesh-vertices">
          <input semantic="POSITION" source="#Cube_002-mesh-positions"/>
        </vertices>
        <triangles count="144">
          <input semantic="VERTEX" source="#Cube_002-mesh-vertices" offset="0"/>
          <input semantic="NORMAL" source="#Cube_002-mesh-normals" offset="1"/>
          <input semantic="TEXCOORD" source="#Cube_002-mesh-map-0" offset="2" set="0"/>
          <p>6 0 0 8 0 1 10 0 2 11 1 3 2 1 4 3 1 5 5 2 6 1 2 7 0 2 8 3 3 9 0 3 10 1 3 11 7 4 12 3 4 13 1 4 14 6 5 15 5 5 16 4 5 17 10 6 18 7 6 19 6 6 20 8 7 21 11 7 22 10 7 23 4 8 24 9 8 25 8 8 26 9 9 27 0 9 28 2 9 29 13 10 30 14 10 31 12 10 32 15 11 33 16 11 34 14 11 35 17 12 36 18 12 37 16 12 38 19 13 39 20 13 40 18 13 41 21 14 42 22 14 43 20 14 44 23 15 45 24 15 46 22 15 47 25 16 48 26 16 49 24 16 50 27 17 51 28 17 52 26 17 53 29 18 54 30 18 55 28 18 56 31 19 57 32 19 58 30 19 59 33 20 60 34 20 61 32 20 62 35 21 63 36 21 64 34 21 65 37 22 66 38 22 67 36 22 68 39 23 69 40 23 70 38 23 71 41 24 72 42 24 73 40 24 74 43 25 75 44 25 76 42 25 77 45 26 78 46 26 79 44 26 80 47 27 81 48 27 82 46 27 83 49 28 84 50 28 85 48 28 86 51 29 87 52 29 88 50 29 89 53 30 90 54 30 91 52 30 92 55 31 93 56 31 94 54 31 95 57 32 96 58 32 97 56 32 98 59 33 99 60 33 100 58 33 101 61 34 102 62 34 103 60 34 104 63 35 105 64 35 106 62 35 107 65 36 108 66 36 109 64 36 110 67 37 111 68 37 112 66 37 113 69 38 114 70 38 115 68 38 116 71 39 117 72 39 118 70 39 119 49 40 120 33 40 121 17 40 122 73 41 123 74 41 124 72 41 125 75 42 126 12 42 127 74 42 128 42 43 129 58 43 130 74 43 131 6 44 132 4 44 133 8 44 134 11 45 135 9 45 136 2 45 137 5 46 138 7 46 139 1 46 140 3 47 141 2 47 142 0 47 143 7 48 144 11 48 145 3 48 146 6 49 147 7 49 148 5 49 149 10 50 150 11 50 151 7 50 152 8 51 153 9 51 154 11 51 155 4 52 156 5 52 157 9 52 158 9 53 159 5 53 160 0 53 161 13 54 162 15 54 163 14 54 164 15 55 165 17 55 166 16 55 167 17 56 168 19 56 169 18 56 170 19 57 171 21 57 172 20 57 173 21 58 174 23 58 175 22 58 176 23 59 177 25 59 178 24 59 179 25 60 180 27 60 181 26 60 182 27 61 183 29 61 184 28 61 185 29 62 186 31 62 187 30 62 188 31 63 189 33 63 190 32 63 191 33 64 192 35 64 193 34 64 194 35 65 195 37 65 196 36 65 197 37 66 198 39 66 199 38 66 200 39 67 201 41 67 202 40 67 203 41 68 204 43 68 205 42 68 206 43 69 207 45 69 208 44 69 209 45 70 210 47 70 211 46 70 212 47 71 213 49 71 214 48 71 215 49 72 216 51 72 217 50 72 218 51 73 219 53 73 220 52 73 221 53 74 222 55 74 223 54 74 224 55 75 225 57 75 226 56 75 227 57 76 228 59 76 229 58 76 230 59 77 231 61 77 232 60 77 233 61 78 234 63 78 235 62 78 236 63 79 237 65 79 238 64 79 239 65 80 240 67 80 241 66 80 242 67 81 243 69 81 244 68 81 245 69 82 246 71 82 247 70 82 248 71 83 249 73 83 250 72 83 251 17 84 252 15 84 253 13 84 254 13 85 255 75 85 256 73 85 257 73 86 258 71 86 259 65 86 260 71 87 261 69 87 262 65 87 263 69 88 264 67 88 265 65 88 266 65 89 267 63 89 268 61 89 269 61 90 270 59 90 271 57 90 272 57 91 273 55 91 274 49 91 275 55 92 276 53 92 277 49 92 278 53 93 279 51 93 280 49 93 281 49 94 282 47 94 283 45 94 284 45 95 285 43 95 286 41 95 287 41 96 288 39 96 289 33 96 290 39 97 291 37 97 292 33 97 293 37 98 294 35 98 295 33 98 296 33 99 297 31 99 298 29 99 299 29 100 300 27 100 301 25 100 302 25 101 303 23 101 304 17 101 305 23 102 306 21 102 307 17 102 308 21 103 309 19 103 310 17 103 311 17 104 312 13 104 313 73 104 314 65 105 315 61 105 316 57 105 317 49 106 318 45 106 319 41 106 320 33 107 321 29 107 322 25 107 323 17 108 324 73 108 325 65 108 326 65 109 327 57 109 328 49 109 329 49 110 330 41 110 331 33 110 332 33 111 333 25 111 334 17 111 335 17 112 336 65 112 337 49 112 338 73 113 339 75 113 340 74 113 341 75 114 342 13 114 343 12 114 344 74 115 345 12 115 346 18 115 347 12 116 348 14 116 349 18 116 350 14 117 351 16 117 352 18 117 353 18 118 354 20 118 355 22 118 356 22 119 357 24 119 358 26 119 359 26 120 360 28 120 361 34 120 362 28 121 363 30 121 364 34 121 365 30 122 366 32 122 367 34 122 368 34 123 369 36 123 370 38 123 371 38 124 372 40 124 373 42 124 374 42 125 375 44 125 376 50 125 377 44 126 378 46 126 379 50 126 380 46 127 381 48 127 382 50 127 383 50 128 384 52 128 385 54 128 386 54 129 387 56 129 388 58 129 389 58 130 390 60 130 391 66 130 392 60 131 393 62 131 394 66 131 395 62 132 396 64 132 397 66 132 398 66 133 399 68 133 400 70 133 401 70 134 402 72 134 403 74 134 404 18 135 405 22 135 406 26 135 407 34 136 408 38 136 409 42 136 410 50 137 411 54 137 412 58 137 413 66 138 414 70 138 415 74 138 416 74 139 417 18 139 418 26 139 419 26 140 420 34 140 421 42 140 422 42 141 423 50 141 424 58 141 425 58 142 426 66 142 427 74 142 428 74 143 429 26 143 430 42 143 431</p>
        </triangles>
      </mesh>
    </geometry>
    <geometry id="Cylinder-mesh" name="Cylinder">
      <mesh>
        <source id="Cylinder-mesh-positions">
          <float_array id="Cylinder-mesh-positions-array" count="192">0 1 -1 0 1 1 0.1950903 0.9807853 -1 0.1950903 0.9807853 1 0.3826835 0.9238795 -1 0.3826835 0.9238795 1 0.5555703 0.8314696 -1 0.5555703 0.8314696 1 0.7071068 0.7071068 -1 0.7071068 0.7071068 1 0.8314696 0.5555703 -1 0.8314696 0.5555703 1 0.9238795 0.3826835 -1 0.9238795 0.3826835 1 0.9807853 0.1950903 -1 0.9807853 0.1950903 1 1 0 -1 1 0 1 0.9807853 -0.1950903 -1 0.9807853 -0.1950903 1 0.9238795 -0.3826835 -1 0.9238795 -0.3826835 1 0.8314696 -0.5555703 -1 0.8314696 -0.5555703 1 0.7071068 -0.7071068 -1 0.7071068 -0.7071068 1 0.5555703 -0.8314696 -1 0.5555703 -0.8314696 1 0.3826835 -0.9238795 -1 0.3826835 -0.9238795 1 0.1950903 -0.9807853 -1 0.1950903 -0.9807853 1 0 -1 -1 0 -1 1 -0.1950903 -0.9807853 -1 -0.1950903 -0.9807853 1 -0.3826835 -0.9238795 -1 -0.3826835 -0.9238795 1 -0.5555703 -0.8314696 -1 -0.5555703 -0.8314696 1 -0.7071068 -0.7071068 -1 -0.7071068 -0.7071068 1 -0.8314696 -0.5555703 -1 -0.8314696 -0.5555703 1 -0.9238795 -0.3826835 -1 -0.9238795 -0.3826835 1 -0.9807853 -0.1950903 -1 -0.9807853 -0.1950903 1 -1 0 -1 -1 0 1 -0.9807853 0.1950903 -1 -0.9807853 0.1950903 1 -0.9238795 0.3826835 -1 -0.9238795 0.3826835 1 -0.8314696 0.5555703 -1 -0.8314696 0.5555703 1 -0.7071068 0.7071068 -1 -0.7071068 0.7071068 1 -0.5555703 0.8314696 -1 -0.5555703 0.8314696 1 -0.3826835 0.9238795 -1 -0.3826835 0.9238795 1 -0.1950903 0.9807853 -1 -0.1950903 0.9807853 1</float_array>
          <technique_common>
            <accessor source="#Cylinder-mesh-positions-array" count="64" stride="3">
              <param name="X" type="float"/>
              <param name="Y" type="float"/>
              <param name="Z" type="float"/>
            </accessor>
          </technique_common>
        </source>
        <source id="Cylinder-mesh-normals">
          <float_array id="Cylinder-mesh-normals-array" count="372">0.09801727 0.9951847 0 0.2902846 0.9569404 0 0.4713967 0.8819213 0 0.6343933 0.7730104 0 0.7730104 0.6343933 0 0.8819213 0.4713967 0 0.9569404 0.2902846 0 0.9951847 0.09801727 0 0.9951847 -0.09801727 0 0.9569404 -0.2902846 0 0.8819213 -0.4713967 0 0.7730104 -0.6343933 0 0.6343933 -0.7730104 0 0.4713967 -0.8819213 0 0.2902846 -0.9569404 0 0.09801727 -0.9951847 0 -0.09801727 -0.9951847 0 -0.2902846 -0.9569404 0 -0.4713967 -0.8819213 0 -0.6343933 -0.7730104 0 -0.7730104 -0.6343933 0 -0.8819213 -0.4713967 0 -0.9569404 -0.2902846 0 -0.9951847 -0.09801727 0 -0.9951847 0.09801727 0 -0.9569404 0.2902846 0 -0.8819213 0.4713967 0 -0.7730104 0.6343933 0 -0.6343933 0.7730104 0 -0.4713967 0.8819213 0 0 0 1 -0.2902846 0.9569404 0 -0.09801727 0.9951847 0 0 0 -1 0.09801727 0.9951847 0 0.2902846 0.9569404 0 0.4713967 0.8819213 0 0.6343933 0.7730104 0 0.7730104 0.6343933 0 0.8819213 0.4713967 0 0.9569404 0.2902846 0 0.9951847 0.09801727 0 0.9951847 -0.09801727 0 0.9569404 -0.2902846 0 0.8819213 -0.4713967 0 0.7730104 -0.6343933 0 0.6343933 -0.7730104 0 0.4713967 -0.8819213 0 0.2902846 -0.9569404 0 0.09801727 -0.9951847 0 -0.09801727 -0.9951847 0 -0.2902846 -0.9569404 0 -0.4713967 -0.8819213 0 -0.6343933 -0.7730104 0 -0.7730104 -0.6343933 0 -0.8819213 -0.4713967 0 -0.9569404 -0.2902846 0 -0.9951847 -0.09801727 0 -0.9951847 0.09801727 0 -0.9569404 0.2902846 0 -0.8819213 0.4713967 0 -0.7730104 0.6343933 0 -0.6343933 0.7730104 0 -0.4713967 0.8819213 0 0 0 1 0 0 1 0 0 1 0 0 1 0 0 1 0 0 1 0 0 1 0 0 1 0 0 1 0 0 1 0 0 1 0 0 1 0 0 1 0 0 1 0 0 1 0 0 1 0 0 1 0 0 1 0 0 1 0 0 1 0 0 1 0 0 1 0 0 1 0 0 1 0 0 1 0 0 1 0 0 1 0 0 1 0 0 1 -0.2902846 0.9569404 0 -0.09801727 0.9951847 0 0 0 -1 0 0 -1 0 0 -1 0 0 -1 0 0 -1 0 0 -1 0 0 -1 0 0 -1 0 0 -1 0 0 -1 0 0 -1 0 0 -1 0 0 -1 0 0 -1 0 0 -1 0 0 -1 0 0 -1 0 0 -1 0 0 -1 0 0 -1 0 0 -1 0 0 -1 0 0 -1 0 0 -1 0 0 -1 0 0 -1 0 0 -1 0 0 -1 0 0 -1</float_array>
          <technique_common>
            <accessor source="#Cylinder-mesh-normals-array" count="124" stride="3">
              <param name="X" type="float"/>
              <param name="Y" type="float"/>
              <param name="Z" type="float"/>
            </accessor>
          </technique_common>
        </source>
        <source id="Cylinder-mesh-map-0">
          <float_array id="Cylinder-mesh-map-0-array" count="744">1 1 0.96875 0.5 1 0.5 0.96875 1 0.9375 0.5 0.96875 0.5 0.9375 1 0.90625 0.5 0.9375 0.5 0.90625 1 0.875 0.5 0.90625 0.5 0.875 1 0.84375 0.5 0.875 0.5 0.84375 1 0.8125 0.5 0.84375 0.5 0.8125 1 0.78125 0.5 0.8125 0.5 0.78125 1 0.75 0.5 0.78125 0.5 0.75 1 0.71875 0.5 0.75 0.5 0.71875 1 0.6875 0.5 0.71875 0.5 0.6875 1 0.65625 0.5 0.6875 0.5 0.65625 1 0.625 0.5 0.65625 0.5 0.625 1 0.59375 0.5 0.625 0.5 0.59375 1 0.5625 0.5 0.59375 0.5 0.5625 1 0.53125 0.5 0.5625 0.5 0.53125 1 0.5 0.5 0.53125 0.5 0.5 1 0.46875 0.5 0.5 0.5 0.46875 1 0.4375 0.5 0.46875 0.5 0.4375 1 0.40625 0.5 0.4375 0.5 0.40625 1 0.375 0.5 0.40625 0.5 0.375 1 0.34375 0.5 0.375 0.5 0.34375 1 0.3125 0.5 0.34375 0.5 0.3125 1 0.28125 0.5 0.3125 0.5 0.28125 1 0.25 0.5 0.28125 0.5 0.25 1 0.21875 0.5 0.25 0.5 0.21875 1 0.1875 0.5 0.21875 0.5 0.1875 1 0.15625 0.5 0.1875 0.5 0.15625 1 0.125 0.5 0.15625 0.5 0.125 1 0.09375 0.5 0.125 0.5 0.09375 1 0.0625 0.5 0.09375 0.5 0.1581559 0.02826887 0.4717311 0.1581559 0.341844 0.4717311 0.0625 1 0.03125 0.5 0.0625 0.5 0.03125 1 0 0.5 0.03125 0.5 0.7968217 0.01461154 0.5146116 0.2031783 0.7031784 0.4853885 1 1 0.96875 1 0.96875 0.5 0.96875 1 0.9375 1 0.9375 0.5 0.9375 1 0.90625 1 0.90625 0.5 0.90625 1 0.875 1 0.875 0.5 0.875 1 0.84375 1 0.84375 0.5 0.84375 1 0.8125 1 0.8125 0.5 0.8125 1 0.78125 1 0.78125 0.5 0.78125 1 0.75 1 0.75 0.5 0.75 1 0.71875 1 0.71875 0.5 0.71875 1 0.6875 1 0.6875 0.5 0.6875 1 0.65625 1 0.65625 0.5 0.65625 1 0.625 1 0.625 0.5 0.625 1 0.59375 1 0.59375 0.5 0.59375 1 0.5625 1 0.5625 0.5 0.5625 1 0.53125 1 0.53125 0.5 0.53125 1 0.5 1 0.5 0.5 0.5 1 0.46875 1 0.46875 0.5 0.46875 1 0.4375 1 0.4375 0.5 0.4375 1 0.40625 1 0.40625 0.5 0.40625 1 0.375 1 0.375 0.5 0.375 1 0.34375 1 0.34375 0.5 0.34375 1 0.3125 1 0.3125 0.5 0.3125 1 0.28125 1 0.28125 0.5 0.28125 1 0.25 1 0.25 0.5 0.25 1 0.21875 1 0.21875 0.5 0.21875 1 0.1875 1 0.1875 0.5 0.1875 1 0.15625 1 0.15625 0.5 0.15625 1 0.125 1 0.125 0.5 0.125 1 0.09375 1 0.09375 0.5 0.09375 1 0.0625 1 0.0625 0.5 0.341844 0.4717311 0.2968217 0.4853885 0.25 0.49 0.25 0.49 0.2031783 0.4853885 0.341844 0.4717311 0.2031783 0.4853885 0.1581559 0.4717311 0.341844 0.4717311 0.1581559 0.4717311 0.1166631 0.4495527 0.08029437 0.4197056 0.08029437 0.4197056 0.05044728 0.3833369 0.02826887 0.341844 0.02826887 0.341844 0.01461154 0.2968217 0.00999999 0.25 0.00999999 0.25 0.01461154 0.2031783 0.02826887 0.341844 0.01461154 0.2031783 0.02826887 0.1581559 0.02826887 0.341844 0.02826887 0.1581559 0.05044728 0.1166631 0.08029437 0.08029437 0.08029437 0.08029437 0.1166631 0.05044728 0.1581559 0.02826887 0.1581559 0.02826887 0.2031783 0.01461154 0.341844 0.02826887 0.2031783 0.01461154 0.25 0.00999999 0.341844 0.02826887 0.25 0.00999999 0.2968217 0.01461154 0.341844 0.02826887 0.341844 0.02826887 0.3833369 0.05044728 0.4197056 0.08029437 0.4197056 0.08029437 0.4495527 0.1166631 0.4717311 0.1581559 0.4717311 0.1581559 0.4853885 0.2031783 0.4717311 0.341844 0.4853885 0.2031783 0.49 0.25 0.4717311 0.341844 0.49 0.25 0.4853885 0.2968217 0.4717311 0.341844 0.4717311 0.341844 0.4495527 0.3833369 0.4197056 0.4197056 0.4197056 0.4197056 0.3833369 0.4495527 0.341844 0.4717311 0.1581559 0.4717311 0.08029437 0.4197056 0.341844 0.4717311 0.08029437 0.4197056 0.02826887 0.341844 0.341844 0.4717311 0.02826887 0.1581559 0.08029437 0.08029437 0.02826887 0.341844 0.08029437 0.08029437 0.1581559 0.02826887 0.02826887 0.341844 0.341844 0.02826887 0.4197056 0.08029437 0.1581559 0.02826887 0.4197056 0.08029437 0.4717311 0.1581559 0.1581559 0.02826887 0.4717311 0.341844 0.4197056 0.4197056 0.4717311 0.1581559 0.4197056 0.4197056 0.341844 0.4717311 0.4717311 0.1581559 0.341844 0.4717311 0.02826887 0.341844 0.1581559 0.02826887 0.0625 1 0.03125 1 0.03125 0.5 0.03125 1 0 1 0 0.5 0.7031784 0.4853885 0.75 0.49 0.7968217 0.4853885 0.7968217 0.4853885 0.841844 0.4717311 0.8833369 0.4495527 0.8833369 0.4495527 0.9197056 0.4197056 0.9495527 0.3833369 0.9495527 0.3833369 0.9717311 0.341844 0.9853885 0.2968217 0.9853885 0.2968217 0.99 0.25 0.9853885 0.2031783 0.9853885 0.2031783 0.9717311 0.1581559 0.9495527 0.1166631 0.9495527 0.1166631 0.9197056 0.08029437 0.8833369 0.05044728 0.8833369 0.05044728 0.841844 0.02826887 0.7968217 0.01461154 0.7968217 0.01461154 0.75 0.00999999 0.7031784 0.01461154 0.7031784 0.01461154 0.658156 0.02826887 0.6166632 0.05044728 0.6166632 0.05044728 0.5802944 0.08029437 0.5504473 0.1166631 0.5504473 0.1166631 0.5282689 0.1581559 0.5146116 0.2031783 0.5146116 0.2031783 0.51 0.25 0.5146116 0.2968217 0.5146116 0.2968217 0.5282689 0.341844 0.5504473 0.3833369 0.5504473 0.3833369 0.5802944 0.4197056 0.6166632 0.4495527 0.6166632 0.4495527 0.658156 0.4717311 0.7031784 0.4853885 0.7031784 0.4853885 0.7968217 0.4853885 0.9853885 0.2968217 0.7968217 0.4853885 0.8833369 0.4495527 0.9853885 0.2968217 0.8833369 0.4495527 0.9495527 0.3833369 0.9853885 0.2968217 0.9853885 0.2968217 0.9853885 0.2031783 0.7968217 0.01461154 0.9853885 0.2031783 0.9495527 0.1166631 0.7968217 0.01461154 0.9495527 0.1166631 0.8833369 0.05044728 0.7968217 0.01461154 0.7968217 0.01461154 0.7031784 0.01461154 0.5146116 0.2031783 0.7031784 0.01461154 0.6166632 0.05044728 0.5146116 0.2031783 0.6166632 0.05044728 0.5504473 0.1166631 0.5146116 0.2031783 0.5146116 0.2031783 0.5146116 0.2968217 0.7031784 0.4853885 0.5146116 0.2968217 0.5504473 0.3833369 0.7031784 0.4853885 0.5504473 0.3833369 0.6166632 0.4495527 0.7031784 0.4853885 0.7031784 0.4853885 0.9853885 0.2968217 0.7968217 0.01461154</float_array>
          <technique_common>
            <accessor source="#Cylinder-mesh-map-0-array" count="372" stride="2">
              <param name="S" type="float"/>
              <param name="T" type="float"/>
            </accessor>
          </technique_common>
        </source>
        <vertices id="Cylinder-mesh-vertices">
          <input semantic="POSITION" source="#Cylinder-mesh-positions"/>
        </vertices>
        <triangles count="124">
          <input semantic="VERTEX" source="#Cylinder-mesh-vertices" offset="0"/>
          <input semantic="NORMAL" source="#Cylinder-mesh-normals" offset="1"/>
          <input semantic="TEXCOORD" source="#Cylinder-mesh-map-0" offset="2" set="0"/>
          <p>1 0 0 2 0 1 0 0 2 3 1 3 4 1 4 2 1 5 5 2 6 6 2 7 4 2 8 7 3 9 8 3 10 6 3 11 9 4 12 10 4 13 8 4 14 11 5 15 12 5 16 10 5 17 13 6 18 14 6 19 12 6 20 15 7 21 16 7 22 14 7 23 17 8 24 18 8 25 16 8 26 19 9 27 20 9 28 18 9 29 21 10 30 22 10 31 20 10 32 23 11 33 24 11 34 22 11 35 25 12 36 26 12 37 24 12 38 27 13 39 28 13 40 26 13 41 29 14 42 30 14 43 28 14 44 31 15 45 32 15 46 30 15 47 33 16 48 34 16 49 32 16 50 35 17 51 36 17 52 34 17 53 37 18 54 38 18 55 36 18 56 39 19 57 40 19 58 38 19 59 41 20 60 42 20 61 40 20 62 43 21 63 44 21 64 42 21 65 45 22 66 46 22 67 44 22 68 47 23 69 48 23 70 46 23 71 49 24 72 50 24 73 48 24 74 51 25 75 52 25 76 50 25 77 53 26 78 54 26 79 52 26 80 55 27 81 56 27 82 54 27 83 57 28 84 58 28 85 56 28 86 59 29 87 60 29 88 58 29 89 37 30 90 21 30 91 5 30 92 61 31 93 62 31 94 60 31 95 63 32 96 0 32 97 62 32 98 30 33 99 46 33 100 62 33 101 1 34 102 3 34 103 2 34 104 3 35 105 5 35 106 4 35 107 5 36 108 7 36 109 6 36 110 7 37 111 9 37 112 8 37 113 9 38 114 11 38 115 10 38 116 11 39 117 13 39 118 12 39 119 13 40 120 15 40 121 14 40 122 15 41 123 17 41 124 16 41 125 17 42 126 19 42 127 18 42 128 19 43 129 21 43 130 20 43 131 21 44 132 23 44 133 22 44 134 23 45 135 25 45 136 24 45 137 25 46 138 27 46 139 26 46 140 27 47 141 29 47 142 28 47 143 29 48 144 31 48 145 30 48 146 31 49 147 33 49 148 32 49 149 33 50 150 35 50 151 34 50 152 35 51 153 37 51 154 36 51 155 37 52 156 39 52 157 38 52 158 39 53 159 41 53 160 40 53 161 41 54 162 43 54 163 42 54 164 43 55 165 45 55 166 44 55 167 45 56 168 47 56 169 46 56 170 47 57 171 49 57 172 48 57 173 49 58 174 51 58 175 50 58 176 51 59 177 53 59 178 52 59 179 53 60 180 55 60 181 54 60 182 55 61 183 57 61 184 56 61 185 57 62 186 59 62 187 58 62 188 59 63 189 61 63 190 60 63 191 5 64 192 3 64 193 1 64 194 1 65 195 63 65 196 5 65 197 63 66 198 61 66 199 5 66 200 61 67 201 59 67 202 57 67 203 57 68 204 55 68 205 53 68 206 53 69 207 51 69 208 49 69 209 49 70 210 47 70 211 53 70 212 47 71 213 45 71 214 53 71 215 45 72 216 43 72 217 41 72 218 41 73 219 39 73 220 37 73 221 37 74 222 35 74 223 29 74 224 35 75 225 33 75 226 29 75 227 33 76 228 31 76 229 29 76 230 29 77 231 27 77 232 25 77 233 25 78 234 23 78 235 21 78 236 21 79 237 19 79 238 13 79 239 19 80 240 17 80 241 13 80 242 17 81 243 15 81 244 13 81 245 13 82 246 11 82 247 9 82 248 9 83 249 7 83 250 5 83 251 61 84 252 57 84 253 5 84 254 57 85 255 53 85 256 5 85 257 45 86 258 41 86 259 53 86 260 41 87 261 37 87 262 53 87 263 29 88 264 25 88 265 37 88 266 25 89 267 21 89 268 37 89 269 13 90 270 9 90 271 21 90 272 9 91 273 5 91 274 21 91 275 5 92 276 53 92 277 37 92 278 61 93 279 63 93 280 62 93 281 63 94 282 1 94 283 0 94 284 62 95 285 0 95 286 2 95 287 2 96 288 4 96 289 6 96 290 6 97 291 8 97 292 10 97 293 10 98 294 12 98 295 14 98 296 14 99 297 16 99 298 18 99 299 18 100 300 20 100 301 22 100 302 22 101 303 24 101 304 26 101 305 26 102 306 28 102 307 30 102 308 30 103 309 32 103 310 34 103 311 34 104 312 36 104 313 38 104 314 38 105 315 40 105 316 42 105 317 42 106 318 44 106 319 46 106 320 46 107 321 48 107 322 50 107 323 50 108 324 52 108 325 54 108 326 54 109 327 56 109 328 58 109 329 58 110 330 60 110 331 62 110 332 62 111 333 2 111 334 14 111 335 2 112 336 6 112 337 14 112 338 6 113 339 10 113 340 14 113 341 14 114 342 18 114 343 30 114 344 18 115 345 22 115 346 30 115 347 22 116 348 26 116 349 30 116 350 30 117 351 34 117 352 46 117 353 34 118 354 38 118 355 46 118 356 38 119 357 42 119 358 46 119 359 46 120 360 50 120 361 62 120 362 50 121 363 54 121 364 62 121 365 54 122 366 58 122 367 62 122 368 62 123 369 14 123 370 30 123 371</p>
        </triangles>
      </mesh>
    </geometry>
    <geometry id="Cube_001-mesh" name="Cube.001">
      <mesh>
        <source id="Cube_001-mesh-positions">
          <float_array id="Cube_001-mesh-positions-array" count="36">-1 -1 -1 -1 1 -1 1 -1 -1 1 1 -1 -0.7197355 -0.7197355 1 -1 -1 0.7563756 -0.7197355 0.7197355 1 -1 1 0.7563756 0.7197355 -0.7197355 1 1 -1 0.7563756 0.7197355 0.7197355 1 1 1 0.7563756</float_array>
          <technique_common>
            <accessor source="#Cube_001-mesh-positions-array" count="12" stride="3">
              <param name="X" type="float"/>
              <param name="Y" type="float"/>
              <param name="Z" type="float"/>
            </accessor>
          </technique_common>
        </source>
        <source id="Cube_001-mesh-normals">
          <float_array id="Cube_001-mesh-normals-array" count="60">0 0 1 1 0 0 -1 0 0 0 0 -1 0 1 0 -0.6560502 0 0.7547174 0 0.6560502 0.7547174 0.6560502 0 0.7547174 0 -0.6560502 0.7547174 0 -1 0 0 0 1 1 0 0 -1 0 0 0 0 -1 0 1 0 -0.6560502 0 0.7547174 0 0.6560502 0.7547174 0.6560502 0 0.7547174 0 -0.6560502 0.7547174 0 -1 0</float_array>
          <technique_common>
            <accessor source="#Cube_001-mesh-normals-array" count="20" stride="3">
              <param name="X" type="float"/>
              <param name="Y" type="float"/>
              <param name="Z" type="float"/>
            </accessor>
          </technique_common>
        </source>
        <source id="Cube_001-mesh-map-0">
          <float_array id="Cube_001-mesh-map-0-array" count="120">0.8399669 0.5350331 0.6600331 0.714967 0.6600331 0.5350331 0.589967 0.5 0.375 0.75 0.375 0.5 0.589967 0 0.375 0.25 0.375 0 0.375 0.5 0.125 0.75 0.125 0.5 0.589967 0.25 0.375 0.5 0.375 0.25 0.8399669 0.5350331 0.875 0.75 0.839967 0.7149669 0.6600331 0.5350331 0.875 0.5 0.8399669 0.5350331 0.6600331 0.714967 0.589967 0.5 0.6600331 0.5350331 0.839967 0.7149669 0.625 0.75 0.6600331 0.714967 0.589967 0.75 0.375 1 0.375 0.75 0.8399669 0.5350331 0.839967 0.7149669 0.6600331 0.714967 0.589967 0.5 0.589967 0.75 0.375 0.75 0.589967 0 0.589967 0.25 0.375 0.25 0.375 0.5 0.375 0.75 0.125 0.75 0.589967 0.25 0.589967 0.5 0.375 0.5 0.8399669 0.5350331 0.875 0.5 0.875 0.75 0.6600331 0.5350331 0.625 0.5 0.875 0.5 0.6600331 0.714967 0.589967 0.75 0.589967 0.5 0.839967 0.7149669 0.875 0.75 0.625 0.75 0.589967 0.75 0.589967 1 0.375 1</float_array>
          <technique_common>
            <accessor source="#Cube_001-mesh-map-0-array" count="60" stride="2">
              <param name="S" type="float"/>
              <param name="T" type="float"/>
            </accessor>
          </technique_common>
        </source>
        <vertices id="Cube_001-mesh-vertices">
          <input semantic="POSITION" source="#Cube_001-mesh-positions"/>
        </vertices>
        <triangles count="20">
          <input semantic="VERTEX" source="#Cube_001-mesh-vertices" offset="0"/>
          <input semantic="NORMAL" source="#Cube_001-mesh-normals" offset="1"/>
          <input semantic="TEXCOORD" source="#Cube_001-mesh-map-0" offset="2" set="0"/>
          <p>6 0 0 8 0 1 10 0 2 11 1 3 2 1 4 3 1 5 5 2 6 1 2 7 0 2 8 3 3 9 0 3 10 1 3 11 7 4 12 3 4 13 1 4 14 6 5 15 5 5 16 4 5 17 10 6 18 7 6 19 6 6 20 8 7 21 11 7 22 10 7 23 4 8 24 9 8 25 8 8 26 9 9 27 0 9 28 2 9 29 6 10 30 4 10 31 8 10 32 11 11 33 9 11 34 2 11 35 5 12 36 7 12 37 1 12 38 3 13 39 2 13 40 0 13 41 7 14 42 11 14 43 3 14 44 6 15 45 7 15 46 5 15 47 10 16 48 11 16 49 7 16 50 8 17 51 9 17 52 11 17 53 4 18 54 5 18 55 9 18 56 9 19 57 5 19 58 0 19 59</p>
        </triangles>
      </mesh>
    </geometry>
  </library_geometries>
  <library_visual_scenes>
    <visual_scene id="Scene" name="Scene">
      <node id="Cup_Yellow" name="Cup Yellow" type="NODE">
        <matrix sid="transform">-2.49811e-9 0 0.1651 0 0 0.05715 0 0 -0.05715 0 -7.21675e-9 0.05463777 0 0 0 1</matrix>
        <instance_geometry url="#Cube_004-mesh" name="Cup Yellow">
          <bind_material>
            <technique_common>
              <instance_material symbol="Yellow-material" target="#Yellow-material">
                <bind_vertex_input semantic="UVMap" input_semantic="TEXCOORD" input_set="0"/>
              </instance_material>
            </technique_common>
          </bind_material>
        </instance_geometry>
      </node>
      <node id="Cup_Pink" name="Cup Pink" type="NODE">
        <matrix sid="transform">-2.49811e-9 0 0.1651 0 0 0.05715 0 0 -0.05715 0 -7.21675e-9 0.05463777 0 0 0 1</matrix>
        <instance_geometry url="#Cube_003-mesh" name="Cup Pink">
          <bind_material>
            <technique_common>
              <instance_material symbol="Pink-material" target="#Pink-material">
                <bind_vertex_input semantic="UVMap" input_semantic="TEXCOORD" input_set="0"/>
              </instance_material>
            </technique_common>
          </bind_material>
        </instance_geometry>
      </node>
      <node id="Cup_Generic_Upright" name="Cup Generic Upright" type="NODE">
        <matrix sid="transform">0.05715 0 0 0 0 0.05715 0 0 0 0 0.1651 0 0 0 0 1</matrix>
        <instance_geometry url="#Cube_002-mesh" name="Cup Generic Upright"/>
      </node>
      <node id="Cylinder" name="Cylinder" type="NODE">
        <matrix sid="transform">0.0381 0 0 0 0 0.0381 0 0 0 0 0.0158 0.180105 0 0 0 1</matrix>
        <instance_geometry url="#Cylinder-mesh" name="Cylinder"/>
      </node>
      <node id="Cube" name="Cube" type="NODE">
        <matrix sid="transform">0.05715 0 0 0 0 0.05715 0 0 0 0 0.1651 0 0 0 0 1</matrix>
        <instance_geometry url="#Cube_001-mesh" name="Cube"/>
      </node>
    </visual_scene>
  </library_visual_scenes>
  <scene>
    <instance_visual_scene url="#Scene"/>
  </scene>
</COLLADA>